P3
64 64
255
-43 -92 -26 91 84 -96 -41 -105 23 14 115 66 5 62 66 57 -116 98 3 49 -8 -74 65 -105 89 -2 -20 36 -93 -67 -117 121 98 114 84 55 19 -85 78 -87 58 -62 107 63 1 46 120 -115 16 -6 -66 10 -79 -128 33 12 -2 14 -81 34 -53 59 -101 -82 -83 112 -27 64 -101 -77 -23 -43 118 -44 -108 120 3 -115 -123 -109 -120 -60 -99 -70 -60 -66 70 -61 76 -11 -27 24 49 1 70 -34 113 -85 31 -115 96 -120 99 -42 -36 -8 -50 96 6 -44 -13 -114 -103 17 -56 94 -49 15 -95 -101 -124 -121 -77 -75 8 122 20 -7 38 -78 -121 -122 59 -22 -35 -104 99 44 -8 -24 1 108 120 26 -4 -64 -9 -52 -48 -103 -25 85 -96 -101 -117 -87 -107 -97 -93 -68 83 -86 -62 14 21 32 38 -8 77 -98 -31 -51 11 90 104 8 -101 96 84 -21 -6 60 -64 27 88 76 68 -19 108 103 42 -65 
18 109 77 40 -115 116 33 90 19 3 -88 -98 -35 17 38 121 113 -6 101 -21 -74 38 -121 -114 -14 -53 125 95 52 39 -98 70 20 -21 110 -94 -33 15 124 115 19 -92 -111 -16 -75 55 -23 -89 50 79 -109 -23 -12 27 -9 -25 103 -12 -58 -101 29 101 -31 49 -47 -48 83 49 -33 80 -92 114 -12 -75 99 -85 -19 -52 83 -97 -101 102 9 -111 2 2 -8 105 -10 -64 5 20 -91 102 -59 119 -74 -104 -87 23 -24 -51 -119 -34 -124 109 10 -15 58 93 -111 -42 67 -101 -25 69 -99 -32 -82 -108 33 51 41 -57 26 110 -66 -48 7 -25 -25 -16 54 -15 79 58 95 89 44 -103 -74 -67 -17 121 -40 -41 -65 -11 -71 -19 11 90 -95 -77 -95 -69 34 97 12 41 -56 116 -103 -2 102 -24 57 69 66 -28 -34 120 35 -49 -14 -5 39 50 114 -32 32 125 -69 -63 49 93 -4 -46 62 10 123 8 
-3 22 7 100 126 -64 -87 65 -91 8 -71 72 87 44 69 127 -35 -73 -33 -2 -76 -101 64 101 -7 -67 56 56 -57 -77 -65 69 73 71 -87 -56 8 -46 10 45 90 67 118 -78 112 59 -79 78 114 -111 -52 -90 -83 -115 12 39 75 68 -34 -110 119 -97 -41 -63 -26 1 -118 110 83 20 27 -83 87 17 -33 71 76 17 22 62 35 -30 -28 -48 -17 -16 -9 59 -76 -42 -51 45 -11 37 110 -36 -91 -8 -54 -8 -116 -26 39 -29 -9 7 -85 -60 -104 -63 3 -69 36 -24 12 21 89 -125 80 15 -39 -98 60 -48 67 -86 45 -23 35 -8 -30 47 95 10 19 -42 -111 -66 -101 42 0 -97 101 37 8 113 58 97 -12 10 112 -50 40 44 31 108 86 77 86 -8 -59 -72 40 37 67 -69 -5 -44 -7 -104 126 -6 -73 99 -97 63 -44 -39 -96 73 -29 -111 -105 13 61 -73 -8 20 5 79 13 -54 
8 -75 111 75 113 -22 -97 -22 3 -99 101 -70 1 5 121 85 -34 27 30 67 44 -74 -49 105 110 -56 -4 -14 -105 11 61 31 -64 -84 -22 -79 -105 -118 -100 -101 -88 3 -43 41 8 80 127 103 -22 29 42 -106 -45 -7 127 -63 66 125 -76 -39 8 113 -8 -56 30 -29 -7 54 -18 22 81 23 25 -90 64 -95 118 63 -120 97 93 -78 119 -80 44 -9 115 110 -12 40 -57 -4 -102 64 69 56 37 63 -19 -109 85 63 42 -18 102 106 16 -36 42 24 -66 7 74 54 -73 118 -83 43 100 -94 -45 44 -97 -19 108 -28 -91 17 -93 -108 36 121 83 78 104 57 57 -9 23 -30 16 -43 -23 90 -117 33 80 58 -52 -76 92 32 96 124 14 76 -32 51 94 -123 71 2 -2 27 -48 -26 84 -119 -34 -22 108 -18 -64 -43 -56 -52 118 25 -122 67 -51 -30 99 -83 -34 -16 -7 -64 37 -41 -59 -21 
90 -60 7 43 43 -37 -76 -119 -58 -96 -9 8 -11 -64 -44 108 -39 91 -80 39 -67 -109 84 -99 -123 78 94 42 -90 -93 22 1 -25 -99 44 19 121 96 -100 -65 -128 -108 -57 118 85 28 98 -82 -10 19 85 -75 -89 -87 -46 -84 119 -80 -42 30 84 108 31 60 10 -54 -50 3 43 107 -61 43 127 -117 -95 84 40 5 3 31 -105 -41 84 -66 1 39 107 120 87 -63 23 43 47 -75 103 -72 -127 54 -68 -84 33 -128 88 -96 -117 -7 -12 -77 126 119 83 23 -50 -89 85 -49 79 -63 -56 -90 3 95 -46 -79 21 -71 107 -106 112 -89 -61 17 -89 28 -78 -78 -107 39 103 21 31 58 -85 -19 -31 1 62 49 66 7 88 -59 102 -86 119 123 -29 -30 -110 84 10 86 102 -79 114 -104 101 8 63 76 -100 94 -122 72 77 -25 -55 -117 26 12 18 -15 -47 -9 28 74 -14 0 -84 -123 -44 -73 
-37 59 -24 78 83 78 -42 -110 26 115 113 -96 60 -66 -119 6 -55 35 18 91 -108 100 83 -80 46 70 -80 90 76 -123 -111 40 64 123 -10 19 73 77 -90 100 -64 -105 -124 -4 -43 14 -126 -97 -80 21 122 69 121 77 -11 39 19 39 -127 95 -84 -109 -120 109 -114 -2 -128 -41 76 -90 -69 -116 62 65 10 20 -50 -116 51 -128 -95 45 -59 -102 122 -68 -63 -114 99 -61 109 -113 -42 117 -4 101 116 -3 -68 64 36 121 -51 99 58 -41 -10 -120 -29 43 9 -122 -41 -49 -96 83 12 99 97 111 -90 -50 -2 125 69 124 98 -71 122 31 122 30 24 72 -127 -47 -97 -8 91 3 36 100 9 -5 -77 -86 -50 63 -115 48 46 -77 0 -83 49 69 42 19 126 36 -79 -8 66 -54 -64 68 28 -33 61 119 -29 -32 92 -20 92 -113 23 44 -49 -92 -37 -3 88 -37 -85 9 -96 85 -101 -97 121 78 
24 60 25 -39 -128 -76 57 -67 45 -100 30 9 10 122 -104 33 38 104 70 3 -26 30 -34 -110 -89 0 -24 67 -97 -31 -111 -73 30 42 17 30 -33 -54 91 -116 103 121 -107 -16 -12 -83 19 27 23 -40 -99 -3 -10 125 16 30 -4 -8 98 -100 91 -13 -45 121 -98 101 -104 -3 -81 115 -118 -106 -19 -97 -120 98 77 27 -4 100 115 -101 -31 106 -104 -14 9 -107 107 107 -79 -58 -34 5 -64 125 -23 -40 123 -103 76 -123 -80 -71 37 57 28 115 -45 26 87 71 53 -71 49 -51 -84 58 99 -105 37 -108 -34 5 -103 -97 2 4 -9 -3 29 -61 -125 -51 126 41 -122 -102 28 90 52 115 33 105 -84 83 55 -40 13 26 113 51 46 -49 -73 -56 111 -71 -52 -26 55 105 -86 59 56 41 -29 -66 68 0 -103 120 -14 -70 98 -96 14 25 121 -101 52 106 -50 98 58 6 -86 41 63 -10 16 119 
97 -69 50 25 100 22 -41 -88 22 113 34 9 -84 -124 41 58 29 35 -43 81 -115 36 52 -56 42 94 -15 106 -43 -126 -31 -74 62 20 -49 -94 -87 -89 76 -65 -103 -19 72 70 -15 114 0 15 -107 -42 -32 -94 -6 -108 107 38 -14 -35 16 72 96 -15 -2 30 -123 -50 64 47 -10 12 110 16 121 -74 -43 107 -88 -43 -6 -67 -84 -37 97 40 -17 76 -51 98 -87 -35 -85 10 79 -86 -89 84 -7 -24 -125 112 -12 113 -128 111 -89 -43 90 -48 -85 85 -114 -40 -80 111 1 -96 60 -50 4 -27 -84 47 112 123 -39 24 -49 83 -128 83 -61 -11 68 -61 -28 -21 -103 63 -68 70 21 -53 -98 -59 59 -97 -26 -10 110 -22 -35 -102 26 78 22 115 -27 -27 71 103 -72 -118 93 -4 -50 66 104 104 1 38 46 22 113 -52 92 -84 -21 -62 36 90 45 2 116 -58 -49 10 -71 -75 111 1 -100 40 
-116 121 -92 91 59 -115 67 61 51 -15 -46 -92 -66 -82 -48 -85 113 -12 -123 -98 -10 122 -28 70 -124 -97 124 -12 -96 25 -100 -84 -109 -63 -121 -50 79 75 -117 -126 61 -34 39 123 -115 -9 -90 127 -19 -84 -99 100 39 -125 -85 43 35 40 32 67 -64 61 112 84 -2 119 -93 78 66 -82 -48 127 -115 -9 123 -101 111 -95 27 -36 78 56 66 -12 59 109 33 -35 -107 -64 34 86 -3 18 43 -4 9 78 -54 76 -4 -101 -53 11 19 -58 -90 3 105 65 -33 55 121 34 45 -75 -113 78 -109 -92 -114 53 123 -115 -58 38 10 -48 -13 -43 29 112 113 104 123 5 -81 -95 8 25 -30 -25 80 -36 -118 -4 18 -103 75 -91 63 -38 91 58 -25 34 96 -15 114 -45 -57 -113 68 -71 120 -64 62 40 98 70 -64 -59 -83 17 -94 56 15 -76 -46 -39 -39 -111 52 -76 -53 -101 -41 -85 -114 -55 127 -43 
-39 67 15 82 4 77 122 -26 19 59 -84 -63 -53 79 121 90 -125 76 53 93 93 -24 19 -88 -123 106 84 -109 -77 83 -24 -115 -105 120 -33 27 69 -39 2 89 21 -82 -102 97 125 20 -69 1 -32 112 -34 -67 -39 113 103 95 91 59 114 15 15 91 -99 -90 -45 125 65 -103 88 68 -14 -20 114 13 -51 112 -96 -118 -16 -127 122 -49 64 84 -64 39 51 28 98 -91 44 113 -127 -55 -105 -44 -58 89 110 -98 -99 -32 12 -113 -19 -39 127 -113 -29 113 -112 95 65 80 51 3 119 -26 -98 90 -116 -54 75 -115 20 -29 -30 91 61 -48 -7 90 -78 6 105 32 96 -23 47 68 91 -64 35 28 -112 87 -98 9 62 62 -30 74 -120 46 88 -99 18 -70 -8 -50 -117 114 -88 -67 -8 -110 -34 89 124 14 29 87 78 65 -14 -33 24 -110 104 86 80 75 32 -40 121 -9 -11 12 -78 110 90 63 
97 4 -4 90 -106 91 51 -110 106 80 -23 56 -111 -36 24 -87 -18 -128 127 -66 -53 -96 24 70 -104 -115 -47 -53 124 44 11 -35 48 -121 56 70 -29 -22 -40 -51 59 66 6 -51 -97 31 -10 14 31 119 -51 -21 -105 101 -79 -81 -14 -125 123 111 47 6 77 -33 -114 5 38 -15 -17 127 -65 -85 -63 69 121 -32 -29 -17 -17 4 103 61 -17 -2 -94 33 47 -107 36 -86 6 83 -79 -46 51 -65 88 -39 -79 72 89 113 -13 -102 54 -20 124 27 -35 108 31 -60 -87 -114 68 76 47 115 97 83 30 -26 -90 79 -70 90 15 19 52 -64 -38 -115 -79 79 40 -24 -69 -92 4 25 -112 -94 -34 -71 49 35 -123 -33 -106 -25 51 -76 -50 89 5 9 -77 -109 -101 103 85 119 116 7 70 -99 111 2 -63 -14 28 -46 -107 122 -116 70 -99 -110 38 -77 122 -40 104 -56 51 -20 -46 102 1 -19 -50 86 
101 67 -36 43 96 -52 46 -94 -65 -55 -12 -43 68 1 -101 97 -109 66 21 -115 27 -4 87 -51 106 -87 53 107 -105 -125 -63 125 70 30 -88 39 -22 86 73 43 32 62 -128 -29 63 28 69 83 94 -39 -32 -7 -41 -73 -57 66 -32 124 45 121 0 110 118 -58 -116 -98 -19 -9 -11 -74 35 -107 -12 35 -7 -77 63 -66 7 30 -103 104 24 113 32 -33 51 2 -36 96 -6 -36 -50 113 35 -38 -113 17 -46 -123 -57 117 -101 60 24 -107 112 88 84 -10 118 -19 95 14 -34 0 109 -111 2 74 113 124 40 -65 109 -54 -101 -4 92 -19 -125 36 -29 -98 -32 -5 52 81 -45 8 72 -55 -10 40 -41 85 40 70 103 42 -112 -40 38 56 25 -109 4 -76 -112 96 34 -109 4 -123 50 100 2 102 -75 -43 111 126 -96 -27 -90 120 -70 -50 62 34 120 -49 123 -98 8 -108 -79 -117 -56 66 -21 106 
-42 112 -16 -120 -44 114 -17 11 72 -34 -119 104 68 -81 97 -2 -3 -97 -95 -11 111 -100 20 -9 49 -59 3 121 -121 -17 -29 94 -33 84 103 -76 -58 87 -65 -113 -75 -56 -9 -7 120 89 120 -11 121 26 -21 -24 -74 127 96 103 69 100 96 -51 -45 69 -85 -77 25 19 104 96 -23 -88 -17 -97 -16 103 25 106 65 -110 -33 -70 -84 76 -93 -29 -53 -124 -54 18 104 44 95 60 -16 11 111 10 -98 87 -23 8 0 -39 -88 -15 -63 65 -37 3 -45 59 -67 1 -121 -32 100 84 -28 47 -27 77 91 69 -119 76 -49 -8 -42 110 81 -64 119 -48 27 -97 66 -36 96 30 95 53 90 29 -75 -31 125 26 -75 99 -56 -101 -80 37 -32 -70 113 -79 51 -57 -97 4 -119 -106 -43 -92 -75 24 1 23 -74 96 -53 17 -4 1 114 -7 -102 41 93 99 -60 -114 -120 38 73 122 87 -5 66 118 1 75 
-115 -42 111 67 110 112 -39 37 80 37 -75 -52 -91 41 -57 64 -47 -92 -92 22 51 -84 60 -5 -90 19 -8 105 -118 -7 -76 24 80 -92 -38 -66 21 53 100 -27 -39 26 50 -128 -62 -7 -64 -108 -97 -28 -85 82 18 103 79 -72 123 -57 -95 -123 -63 87 29 -111 -5 -9 -49 -112 -84 52 -11 -121 -50 41 8 -111 -94 72 -90 -63 46 -47 21 -65 57 -29 -9 52 -85 -102 -71 -20 -15 86 126 109 -50 -51 125 123 -126 116 3 81 29 -118 98 -65 -45 9 2 -127 -38 23 -64 -108 -6 -72 -56 -90 83 3 -109 -60 89 -111 50 -89 95 -80 36 -31 -92 -90 -78 65 50 22 1 -123 -98 -126 -122 122 -103 71 15 20 0 87 -70 84 -39 -51 25 52 95 -53 91 63 -5 127 -96 -96 -90 84 -31 88 -23 98 -35 -120 -27 -29 -126 -2 43 17 20 -86 -24 78 -2 -62 29 -104 118 -5 -29 -46 -70 -33 
82 92 0 120 48 97 -48 -103 67 46 34 -88 18 37 -88 61 -75 60 104 -98 -118 -26 -31 39 127 88 36 -30 43 94 -62 -3 -70 -62 118 106 -93 72 4 -25 -11 -90 -112 9 -53 -72 -59 1 -12 46 -96 0 22 -126 39 21 90 -54 -8 -122 42 59 4 100 126 -7 -49 34 -63 -45 10 -72 122 27 -63 -59 -45 -121 -57 73 54 -25 73 76 -23 112 -32 68 -69 89 74 -27 -107 78 -55 20 73 -103 -75 11 -19 -64 -61 -25 91 5 46 47 13 117 120 67 93 -63 15 -58 -78 -17 11 110 -55 86 -45 95 36 29 -14 109 55 -88 -8 37 -24 60 -116 68 -63 58 -13 -50 -81 -21 18 -116 46 33 83 -32 -112 95 -50 90 53 34 57 89 63 44 71 118 85 -65 27 -67 -5 40 3 -67 98 118 12 19 98 30 -97 -112 -66 -13 -16 80 -46 63 42 8 97 100 97 33 -112 40 23 101 
-25 -78 36 100 -38 -90 -95 61 29 -82 -49 -2 -52 112 -112 12 -29 1 -37 -74 65 6 62 34 106 -97 -62 123 72 -38 -32 48 13 -124 -108 -25 43 55 -92 72 -27 117 -57 50 101 -41 62 73 -40 -103 127 -103 -96 -67 60 11 -36 -2 6 37 89 -25 -43 102 108 106 78 24 33 -13 -33 7 -24 -89 -71 78 127 119 23 89 18 22 114 -78 83 -82 61 48 -82 68 -43 -121 -85 43 -18 -105 -107 -68 -81 -73 48 -112 62 25 56 -9 -26 56 -17 -3 17 2 20 -125 52 103 51 113 24 97 -75 109 104 -32 -104 -42 121 -83 -108 41 -28 68 57 36 -35 114 -101 -60 42 -117 67 59 13 -42 -66 65 -66 113 -77 -42 82 -24 -61 -69 -54 -37 -110 -61 9 -90 108 -18 -21 -90 -110 73 -104 -83 14 -62 58 -48 -3 71 -88 60 9 103 -82 -68 -67 1 37 1 -68 111 92 -49 51 101 118 -96 
-45 -31 -58 102 43 95 21 -71 34 -50 -118 -97 -107 -78 -37 -98 -103 10 -38 87 -117 -128 -41 -57 -17 52 -105 -93 -102 15 -61 -19 -16 -118 85 -100 -23 -23 86 -117 56 96 43 -51 20 -122 -20 -83 -111 71 -123 29 -57 -36 -28 -72 18 -4 -37 44 -117 -97 26 -5 42 -18 -104 -109 -40 110 -98 -112 -49 -55 -34 99 -49 -53 -112 -32 -110 -107 125 91 115 -30 -109 -123 -33 111 49 107 15 75 103 -72 59 1 -53 -109 -18 106 37 -66 -77 4 34 -125 79 51 101 -31 -56 -30 -68 60 -59 80 65 37 -65 114 -112 -50 -66 120 7 121 -8 -46 13 -25 61 -79 -89 -16 53 73 -12 -124 124 90 -26 -59 -68 -93 2 3 -12 -61 40 52 54 57 -125 116 -79 -118 -19 -86 -35 123 -110 27 45 -71 -116 -30 -125 -127 103 127 91 -51 69 -105 114 -57 -102 -26 -117 67 27 65 124 -98 -74 46 -87 36 88 -121 
31 106 34 -52 -92 -82 -81 40 -81 -106 -89 -118 101 109 35 87 53 61 62 -64 -128 -40 -127 124 -9 56 42 33 -36 2 -88 -5 109 74 -56 18 121 -9 -71 41 -113 -32 -76 -12 78 87 -53 -125 20 10 -61 21 98 70 -111 -39 126 -68 -6 -38 -66 35 -41 -85 110 32 61 -25 25 -10 -112 40 -40 -60 -100 39 28 104 43 -80 -15 -18 -59 84 53 87 47 52 -109 -87 15 -46 -51 102 126 -69 7 -68 35 -97 51 -77 -57 12 121 100 -77 21 -52 -34 -59 -66 -51 -117 -110 -125 99 65 -73 -10 -21 70 -55 57 45 -56 116 52 -123 -105 83 -72 75 27 69 68 -2 -8 90 75 -41 -97 -119 37 44 28 -88 15 94 96 6 -55 39 80 -126 84 25 118 8 -98 14 -38 -42 -40 -11 28 30 116 21 -9 -65 108 -105 -56 -110 67 -28 59 82 -62 28 -40 12 -62 41 14 -106 66 -124 -98 96 -110 
121 -74 108 -18 -45 10 -30 104 2 34 85 -103 -22 -25 -35 79 -94 48 19 62 -120 -98 1 -79 -83 -105 115 50 -75 83 -59 -82 11 -79 -99 94 -69 0 70 -67 34 -101 -42 13 3 -76 93 38 101 -17 100 -19 -114 -27 32 60 -4 -109 -18 -77 103 -76 98 114 -27 -128 80 33 -128 -106 -34 35 -78 53 -81 53 -22 -116 -38 -49 -5 -65 61 -117 -91 -36 71 -94 -16 54 -43 88 106 -72 74 80 57 -102 113 57 -80 -49 -37 -30 6 -116 -104 112 -104 115 -65 -107 51 124 33 88 90 -25 -5 -54 31 81 35 -119 10 109 90 67 -121 75 -4 -73 -101 88 -101 33 -28 52 -111 -3 -89 -48 -109 91 -52 52 -77 39 28 -81 -15 -70 -127 -108 69 -117 -127 31 79 9 106 76 -63 6 -92 -36 39 10 17 56 8 56 -120 27 -109 86 79 72 -4 -22 119 111 -90 -8 -125 107 -123 6 -118 84 15 116 
32 80 -6 68 45 -95 78 -67 90 -43 -10 -30 112 10 -72 -65 82 54 43 74 37 -47 67 -88 -68 72 -82 71 -100 62 59 -68 14 54 2 60 88 -49 121 -78 38 112 21 -106 123 -50 -42 77 -124 2 -105 -87 83 91 82 16 -93 2 87 -64 -65 18 -4 -51 -56 -2 -119 33 79 4 -45 117 -13 -24 -117 -18 55 98 61 -69 100 84 101 -73 -81 56 -57 84 58 -98 -108 121 -79 -111 71 122 17 -47 -101 96 -43 -18 85 73 87 -32 57 15 68 -11 -54 40 74 -80 96 -6 104 40 -50 34 71 99 -101 120 116 -30 -14 -123 52 14 101 -119 124 -70 -45 -45 28 13 -30 -33 3 46 8 -52 94 104 -57 -58 17 22 -24 88 121 -124 80 110 -26 67 -13 28 -48 90 -91 -52 -108 -8 -96 -80 6 4 -112 -120 -79 25 86 16 1 -99 -42 18 -76 63 -23 -83 67 58 28 42 -4 -112 70 77 
106 108 26 -2 101 -69 48 -21 63 64 -13 -16 -40 -55 1 -38 104 87 -20 -100 22 87 74 89 -111 -26 -125 15 119 74 92 -31 54 119 96 -101 -78 16 7 113 -48 -5 98 -87 -59 -30 4 -83 -71 113 74 -49 -56 -107 41 -39 -5 44 -24 115 118 -59 -44 -84 61 53 -56 111 -59 -49 -32 -106 75 67 -65 -111 -91 -60 63 95 54 -118 -82 126 -97 -41 88 -101 4 -63 15 -6 -121 99 -89 -60 -104 -17 -77 -35 -64 -108 -13 -117 87 -76 29 124 -8 93 -37 47 103 -118 -83 7 -31 -123 -94 -27 71 49 -32 -50 -108 9 19 -84 -8 -58 -117 57 -38 127 69 -79 -77 98 46 -84 63 -119 91 -90 20 -120 -83 117 15 -49 -37 86 1 -68 38 21 69 -72 -62 -66 -128 -51 -9 -38 -52 -68 -115 -127 32 -69 -83 95 70 10 7 -39 -110 52 80 -95 5 44 120 -123 104 30 -101 46 -42 -35 -20 -42 
43 100 -78 -9 34 64 -8 66 123 -89 33 -63 -79 -89 28 -61 -36 108 -27 97 24 94 102 -128 124 -127 -82 -46 95 27 -86 -118 -128 93 3 34 29 -5 -29 -104 -93 5 -38 -44 -83 -10 25 10 -30 -2 -22 -6 -36 81 -6 -40 -45 42 43 -78 69 -43 62 69 -78 -64 103 -49 -68 75 -24 -32 -48 -61 53 -3 58 78 8 29 -52 114 24 41 -61 -110 -127 -105 -68 -83 -54 -126 -125 -120 -57 -74 73 -81 -122 -123 -6 -18 102 75 -78 -100 73 108 106 -48 -119 -73 67 33 -32 -121 -76 -30 31 -16 -112 -23 115 -109 -15 -69 74 59 107 81 -63 -27 64 40 -79 115 68 -6 -33 47 -52 106 -26 -113 11 71 23 63 42 -74 49 58 32 36 -50 19 95 -104 78 74 -23 16 49 43 -72 -30 -98 124 93 -3 -85 42 -25 -110 58 -13 90 81 -78 -124 8 99 63 41 -120 14 60 -25 38 10 51 17 
27 -29 -69 83 70 90 -49 35 -41 -5 -51 -64 -114 8 52 104 89 -26 109 98 75 -84 11 83 58 -58 59 96 -48 -19 113 107 81 45 -66 23 7 15 59 95 11 9 32 25 17 84 -126 -23 59 -17 -53 6 28 -42 89 86 -99 21 -74 -18 3 -88 90 -44 85 -103 -21 -36 -88 -90 60 -77 -81 92 -52 64 48 -50 43 -22 62 -10 -15 90 78 75 48 107 -33 -25 90 99 16 53 56 101 -50 -93 -63 119 75 -3 -86 122 -39 -10 -69 10 70 102 117 -124 93 103 95 43 50 -113 -105 19 -10 113 118 7 -90 46 -20 117 81 46 108 -100 45 -106 -105 -122 -114 -46 17 -44 57 -122 -40 22 109 56 66 -97 -56 89 50 -65 -54 40 71 -15 -43 -77 103 40 -31 84 68 -114 -22 -37 22 121 -82 39 -51 103 45 -89 -3 -102 -33 64 -71 40 25 -20 104 99 -108 47 85 107 -30 61 -109 68 
-111 -41 -45 124 52 105 118 -30 16 -61 -54 61 107 -56 -41 -53 -120 -111 115 -95 -3 -37 5 -109 11 91 126 109 -104 18 -78 -87 105 6 -91 -99 -18 -101 1 -2 96 -53 -69 75 -108 19 -106 29 36 11 62 35 -26 -62 54 114 -99 -76 -33 -75 70 18 95 47 -105 6 -51 -122 -95 78 5 -127 26 64 -51 46 83 100 -54 120 -18 -120 27 -42 75 81 -56 -23 -123 40 -97 75 59 0 122 82 -123 -57 89 -90 22 94 41 -81 31 -10 93 114 -38 -89 106 -54 48 -123 33 124 -42 -23 -27 -37 -111 -123 39 76 5 34 -97 10 105 -8 -79 0 -42 -38 -81 -11 81 -115 -24 -85 53 83 118 102 -39 23 98 48 -128 72 13 19 77 -77 95 -46 85 126 -36 63 119 14 63 -50 104 110 68 -71 -5 45 -27 -79 1 92 24 90 -13 122 -118 116 66 23 -121 -113 75 103 98 32 -27 -65 95 -35 
-51 -98 44 55 -115 112 112 9 30 86 -70 -98 51 -46 -8 39 -52 -125 27 15 27 35 31 102 -118 1 6 -17 -64 102 77 -113 -124 121 70 -111 -22 -74 -101 -120 14 86 39 -64 -87 -97 -25 118 35 -126 6 -67 -91 37 -93 48 -91 -86 -96 103 17 -19 118 21 104 -68 -89 -46 -14 67 -38 1 25 -127 65 -62 33 -88 58 68 44 -65 -126 -47 100 38 -126 10 -48 35 -16 97 17 103 119 -8 -93 -98 75 -105 97 38 24 -7 -89 90 -67 -56 3 119 -115 47 55 16 -127 -101 54 4 37 8 -90 23 -24 55 -3 -33 49 -94 126 124 -71 95 -93 -47 90 -54 44 24 -108 48 15 -95 -34 70 -79 96 97 -25 -29 6 111 -118 29 89 -62 -101 57 -13 -67 56 -17 119 -105 19 73 113 -34 118 9 -14 38 24 -108 -124 -35 70 101 -66 -83 73 -59 -99 -44 98 -10 23 -3 -81 -118 -69 -25 122 
51 0 14 -4 113 -20 -14 -6 -33 25 19 -13 29 113 58 -126 48 103 -52 -11 5 33 89 123 56 -42 44 -62 19 20 -68 -59 -109 -54 -62 -123 55 -75 -128 -106 78 19 -118 108 -124 68 -18 53 -84 59 -86 49 -37 4 -83 20 91 -39 86 110 109 -109 -77 2 94 119 -121 -106 -84 -121 -84 -5 -102 56 -25 -97 124 -42 84 -88 -110 -2 90 110 -125 8 3 -34 97 -40 -52 78 108 -128 80 75 -9 87 97 37 94 14 33 121 70 9 -104 67 95 -20 107 113 -21 -59 -32 111 -51 99 78 -82 60 -102 -3 41 28 -51 116 -109 38 85 -72 4 99 89 125 42 -31 22 -20 66 3 88 51 111 31 -109 -34 108 -10 -83 28 -77 72 -103 -36 -29 103 -48 120 13 38 -80 18 9 11 -113 51 -20 38 -97 -82 -88 -8 -30 24 -105 -11 -9 -125 -19 -91 31 33 109 -72 125 82 33 78 74 -83 -13 
-6 -65 -4 -123 -49 -80 -14 117 -49 33 30 -56 4 55 -33 122 -82 100 104 84 -125 -119 65 61 7 19 -35 -44 93 -117 72 -40 -53 -60 94 27 -12 -48 -112 -59 -14 -82 14 118 -27 -18 -16 -108 83 -40 104 86 98 42 19 -24 61 112 61 -101 124 -123 -13 72 75 -47 99 64 -93 -13 -123 -106 34 -108 13 -120 -125 126 29 86 87 6 -84 58 48 64 -94 -20 -80 96 8 45 -27 -5 -12 -80 -50 88 113 114 -53 -10 -120 -18 -117 21 119 -114 -109 20 -28 -21 -103 18 -91 73 -47 72 55 -126 -88 63 48 15 60 37 63 -118 -3 -80 -4 -55 40 5 56 51 26 47 -62 -82 68 39 26 93 57 63 -89 11 -121 94 14 -80 29 -67 63 -40 -30 126 99 -32 -81 -33 43 -41 -28 -30 11 0 19 77 46 -42 117 -57 52 46 7 91 -71 14 -71 71 -66 -41 5 -3 48 -25 125 -108 73 45 
116 -13 -124 -39 -42 15 -39 -23 93 -121 64 82 79 -12 -128 86 80 -71 100 -118 1 -93 -31 -123 33 18 -19 -98 -90 55 75 -101 -86 79 117 -127 95 79 -21 60 86 -85 -114 -91 -96 -114 -5 -15 73 -33 124 -55 3 -35 80 37 -17 62 67 -105 -12 15 -78 -97 94 40 -96 61 -10 12 121 77 -72 8 114 89 23 -19 -54 96 -51 71 -87 -47 37 121 -10 -107 55 58 -84 44 73 95 75 40 7 108 101 -3 -9 -33 -54 -80 103 61 -118 126 43 85 94 120 29 9 -55 -63 2 64 87 58 -6 4 -27 -61 -30 -79 -21 -23 30 82 103 22 -79 50 71 25 -18 -47 -104 -103 39 118 19 -61 127 92 -122 -126 -99 -35 -68 -104 98 34 92 69 -45 -56 48 -15 -102 23 -120 76 74 -49 -28 -72 33 -4 83 -57 116 -27 -116 -13 66 19 -11 95 112 50 119 -46 85 -44 -104 41 29 72 -101 -73 
95 36 -125 41 115 104 -30 -108 102 -75 -37 -38 -101 104 78 93 123 -60 -67 108 118 53 63 -53 -119 87 117 -90 -97 -112 -35 0 52 97 41 -89 -54 12 -69 -80 -63 -105 11 -36 1 89 59 -5 -99 120 104 21 45 40 96 -73 127 -43 -35 -97 -27 -68 -97 26 30 72 65 104 -44 -4 25 22 21 36 -13 -107 -3 -82 17 -101 -90 -7 48 -45 -95 -111 11 33 -26 -23 64 -51 38 95 -25 -61 -88 42 45 125 -90 -59 -109 59 -22 7 -48 104 53 98 4 -37 92 -76 -80 -3 70 -69 -98 -84 37 -33 122 75 63 -30 -113 103 -116 -68 -28 -78 -126 -8 -18 -20 127 63 85 -75 -95 -39 -111 125 -114 -63 123 84 -3 -102 1 -94 -7 124 -18 57 -34 126 33 107 -70 6 30 -68 126 -116 -86 -2 -52 127 52 -19 -40 69 108 103 8 103 59 -123 2 61 40 123 57 -106 -75 -105 -108 -42 3 79 
92 -96 13 91 46 55 -39 122 54 14 -25 16 83 -45 -10 91 60 51 96 -67 -17 -119 58 -88 32 111 64 -75 -59 67 5 -95 99 -111 -4 17 72 -42 11 127 -28 -13 15 57 -57 6 20 -125 -72 117 66 -88 126 -5 81 -98 107 -111 84 -80 84 -39 82 56 -22 80 73 52 39 -44 51 -116 -56 66 69 16 -57 -40 -108 -127 -51 86 -87 76 82 123 -21 61 -116 -65 -19 -31 25 64 -103 5 -112 98 -72 56 55 107 -60 0 45 10 17 -12 98 37 -11 49 123 -96 125 -51 28 -24 -118 -88 -87 120 10 66 -72 -93 -58 -55 7 127 2 62 106 70 -66 -105 -49 79 13 50 116 3 99 111 35 -31 -68 -66 74 71 104 -13 -65 -15 -74 -9 22 125 -63 -100 125 67 90 -25 -119 25 0 89 -25 -116 12 -37 -113 111 75 51 -48 -121 -15 -101 -50 -39 15 14 -52 -59 7 98 68 72 -2 -63 
-116 89 41 22 -14 41 -17 90 -75 -5 55 -59 -22 2 -8 60 -118 106 -41 -40 69 -26 -25 18 -83 -18 116 113 55 -14 51 67 76 -37 90 -66 6 -55 26 59 69 -48 -128 48 -46 121 -21 -36 -28 67 -74 42 -86 -98 -69 88 13 -81 73 -61 -94 124 8 110 -41 -31 46 -35 -85 -57 -103 -16 24 26 -96 -22 20 13 -56 -8 80 -2 -94 -6 -99 -35 -46 -86 13 28 -19 -81 24 -11 -99 -16 -41 75 78 -125 -110 -25 -13 -86 3 -107 -106 23 -94 -34 -113 -14 -35 -79 110 -6 15 65 37 28 94 19 75 -11 10 -24 -26 97 -76 54 101 71 -99 89 -14 32 110 9 -74 17 103 70 -124 69 119 114 -65 6 -77 -28 -95 -111 119 -20 -120 1 86 -18 99 11 -92 72 -47 67 -95 -60 99 17 -51 27 -95 53 -32 -91 -7 -40 24 57 94 76 -99 1 -35 22 -19 -27 -106 -61 85 121 78 121 
-63 33 -68 100 -27 -96 -12 52 59 22 105 -101 60 -29 116 84 29 -45 32 -69 -44 126 81 66 -29 -25 -122 57 98 -44 -77 36 -11 -17 8 92 16 124 -112 75 19 121 -25 79 93 -37 -93 -6 47 -60 54 -125 67 -121 -58 39 111 -52 -32 81 -95 20 -11 -104 4 -3 116 21 -6 5 -33 14 126 -57 93 92 36 -128 -42 83 -60 13 -41 -121 -108 30 -81 -125 -22 16 -43 -116 36 -53 -92 -89 73 25 60 68 -99 29 82 29 -28 47 -8 9 -80 -49 -36 117 -36 -76 -3 -16 -46 45 116 -67 -68 -55 -55 -32 21 -18 8 -34 8 69 35 -90 98 -11 67 -58 -92 60 80 85 -117 45 75 104 -31 73 -40 52 -11 -52 113 -78 -105 -70 19 44 -87 27 11 -78 96 -82 -40 66 36 28 10 -56 -41 90 -98 99 7 -23 75 104 51 36 -100 -88 112 -115 91 8 72 110 -76 -14 9 63 37 106 
-19 -3 44 18 -103 54 91 113 16 -7 84 -106 -29 31 -2 -106 -62 -101 63 51 -88 -102 -69 -15 -120 -17 -28 -111 47 10 123 30 -121 -88 -81 33 94 11 18 -18 5 -27 -123 -24 -124 -123 -2 71 -96 62 -7 74 88 53 -69 96 37 32 -14 85 42 -19 -14 49 -106 -94 -47 117 -82 99 100 51 73 105 -100 -51 110 -101 -108 16 -38 14 -39 -78 68 -107 20 -24 -75 -122 62 95 116 49 16 -117 84 -31 -128 3 69 100 54 14 -51 82 91 61 -18 111 -52 73 125 38 -5 65 -69 -113 43 -16 22 105 -49 11 27 -33 22 111 65 -106 -15 -122 -6 -89 -108 72 -6 111 -123 -23 -34 -47 51 92 -9 -82 -98 51 63 -55 36 -44 -78 115 -33 -51 83 -11 61 20 12 47 -102 7 87 -82 80 82 30 85 60 124 40 111 -39 32 -99 -9 84 -36 65 -9 -78 -13 108 -110 66 63 9 127 -45 21 
47 -19 -100 -122 -99 108 -40 59 -63 -108 56 105 -125 18 10 33 -119 -35 -2 -54 -43 49 62 -63 67 -128 -127 76 -128 -44 -31 47 -62 126 -75 96 -22 14 28 44 34 84 22 -91 -27 32 70 111 -3 -60 -71 83 -11 -9 -107 58 121 -106 6 121 107 103 -88 46 -27 94 15 80 -21 -86 -4 -115 -2 19 -78 100 -78 -8 83 -80 -66 13 -125 52 -124 -104 -19 125 47 116 -10 26 -37 -97 73 66 125 -41 -110 -24 -126 15 118 1 -95 41 101 84 -94 -72 -124 97 69 9 21 73 -95 4 -57 81 -9 62 107 -45 -34 52 22 -37 -117 41 -59 14 56 -69 -114 90 101 -13 -82 8 44 52 -24 -16 -68 -3 59 94 -127 -126 47 121 -64 27 78 31 -50 -29 -5 91 13 65 -24 -59 -4 120 32 98 -21 78 -23 -104 -126 -46 -119 63 -47 68 30 -46 70 -52 77 -121 -25 27 -90 55 -2 34 -110 -116 
-30 -6 -47 96 -14 113 66 -33 63 45 -9 -62 0 -127 -127 81 70 -97 37 -116 109 -15 20 -44 13 59 12 -117 -36 30 -105 -64 26 -24 33 13 -39 99 108 26 -112 100 92 17 102 -35 98 44 -3 7 -72 107 -8 77 -65 -123 8 -52 -111 -28 -22 -88 -91 -124 -110 -58 18 -21 -86 -3 6 -70 -30 98 75 73 -64 -82 117 -66 53 -83 -87 -82 122 105 52 -126 -75 -59 104 33 -18 -115 37 -127 -44 55 -20 127 54 -13 -71 25 -43 6 -31 -106 -76 -42 -44 105 4 126 24 127 104 77 -127 30 -110 105 -66 -127 -9 -28 -126 -52 28 112 76 -47 -29 6 106 -71 12 -53 -48 64 -94 37 42 39 -92 66 38 -116 15 -89 42 -94 18 -23 -93 -119 -50 -90 86 106 -106 34 -68 122 40 -90 -77 -76 115 4 116 -107 42 -98 -68 -50 97 98 -38 112 11 5 -110 -100 -18 55 38 61 93 -5 40 -13 
30 -28 -19 -59 -117 -95 -7 126 -90 111 21 -48 -115 81 31 -18 52 -7 -33 -66 126 114 91 110 41 1 43 -122 124 83 -7 -102 56 -25 96 68 -118 -38 66 -80 -55 -42 1 87 41 -97 -58 -36 25 -90 -101 -105 25 118 -123 67 119 -79 73 -13 5 68 14 -67 44 -19 -127 54 -56 -61 102 -110 -101 103 106 68 -122 -80 33 -97 -42 -68 56 111 51 -67 -78 42 -18 124 -99 -12 64 43 50 108 25 -77 35 -30 119 -119 -12 -110 113 -34 86 -9 -113 -10 -104 -27 51 80 86 -27 -115 -120 16 125 5 45 114 69 88 36 50 -15 -41 85 84 -50 94 73 -31 -49 -88 56 72 -73 48 96 -98 99 -80 -12 -55 -67 125 -39 59 -125 -121 45 72 95 81 122 81 41 79 -91 120 -82 111 90 -3 24 -110 -59 -49 66 38 110 38 86 -30 -17 21 97 73 -49 100 80 -3 -84 -80 -50 40 -127 120 -10 
40 -16 37 23 75 -93 47 93 105 126 32 16 109 -59 102 80 -75 -6 49 126 -53 -107 -49 73 67 0 24 -22 -127 -112 -31 41 1 8 64 76 -85 111 42 -108 110 -55 -92 91 -113 -117 -85 -60 -122 93 67 82 -14 -110 -101 54 18 52 33 -108 -60 -125 -67 -58 11 -2 -110 54 -19 60 -54 92 6 -17 -73 21 123 -29 -39 2 -64 -99 -44 -77 -81 -17 -22 -62 36 -117 87 -23 -114 -108 48 -103 -109 66 -49 2 127 -101 94 5 11 -106 27 -122 -7 116 8 -70 18 92 -19 -62 77 88 5 -16 -28 92 90 -14 -16 -118 -115 5 -51 93 7 -52 120 -28 -47 -125 -6 -20 -119 116 -31 18 -82 -13 110 -99 54 -69 -11 59 -83 90 23 8 78 -120 19 -37 13 96 -72 20 45 50 120 -2 53 -13 108 -65 104 78 -47 24 -63 -65 -75 120 124 43 51 -87 -122 75 49 -44 83 -61 48 96 36 -24 
-13 81 -102 -21 -48 -48 -33 -68 16 73 11 97 -32 76 33 22 -60 29 65 -8 -58 -57 -61 120 28 23 60 76 -10 97 -75 -22 50 80 86 3 33 55 -65 49 0 74 18 -32 23 52 -10 91 81 56 84 -104 -128 -105 -112 -100 46 -52 105 37 -83 31 -113 96 111 -26 99 17 30 -93 -63 -99 109 -44 126 -124 9 117 -32 -39 45 -76 114 45 -52 3 -54 -6 80 -77 33 125 82 -80 -35 -63 23 -63 -46 -76 101 -107 82 82 106 -48 87 -14 -59 -73 -52 115 108 -65 -96 57 66 -22 53 -110 30 -43 -112 112 6 110 51 30 48 -123 -46 21 -102 -91 104 -124 118 -65 119 -68 -10 -60 48 99 -124 80 29 -58 60 -47 -39 90 39 106 -53 45 -40 126 75 -119 -125 -98 -98 31 68 -122 -93 58 -59 -101 118 -68 96 38 -96 100 119 61 43 51 -114 -124 13 -75 -18 88 98 72 -42 46 81 -38 
-52 111 -7 -112 -10 29 -54 60 -72 66 -7 25 104 26 125 95 87 41 -110 -27 -83 -96 27 29 120 125 -28 -49 -85 -75 -86 -9 37 -92 -120 28 -63 -45 89 -6 22 -46 20 -3 -20 18 94 -61 -70 112 41 -25 -112 68 -124 10 65 -24 -39 109 -98 4 101 -60 -88 110 96 -23 66 57 -28 -41 12 121 85 120 11 51 60 69 -92 -28 45 -76 -88 50 -66 -22 27 24 -41 -70 28 61 127 68 43 -33 -82 109 26 19 -60 -91 12 27 31 23 78 -38 -37 114 -64 10 40 105 -69 -26 -45 -42 127 -85 -111 27 105 -112 96 -108 113 15 -126 11 -95 71 48 -82 -31 79 69 49 -86 34 -93 -22 -85 -53 -45 103 51 -88 62 50 -45 80 77 61 -32 -83 82 82 60 -44 -36 -34 28 14 13 -2 -36 82 -81 7 116 -46 -15 32 31 -58 7 -47 -18 70 4 -62 -106 81 1 119 127 83 74 59 
40 -90 -103 -61 52 -90 66 18 -7 113 25 -19 69 -117 -114 100 82 -107 54 65 -37 -71 4 -15 -118 -124 -23 10 -41 -77 -59 127 90 95 -61 -113 7 -123 33 -128 -9 -71 110 61 69 -4 33 23 19 -42 -41 -18 16 92 97 -102 -32 75 -91 57 126 -22 56 -40 74 -5 -25 -48 2 -120 -48 -7 -62 64 -74 8 -68 87 -97 -49 -83 -10 63 -67 83 -96 88 -76 107 125 -19 -23 104 -91 66 -77 34 -86 4 36 -78 -43 30 117 -107 84 -3 -47 -85 -99 34 89 -108 97 23 104 -127 111 29 108 109 -118 -43 -43 -81 -105 9 -47 -63 -115 -11 117 99 20 106 120 104 104 74 -109 -123 108 -20 -102 77 -125 3 -50 115 -97 -70 -32 -87 16 54 89 -88 -65 44 106 77 34 95 48 -74 -54 -88 -98 -78 -14 -78 57 96 -97 -45 45 36 86 -4 -105 -11 55 -9 -97 72 46 120 -16 -19 -92 -38 -70 
71 -70 -22 125 -123 -109 -101 -73 -121 78 -16 103 -18 68 -108 -110 -102 17 -87 -112 73 -95 -81 17 -49 41 -127 62 77 -37 -8 -108 -106 -28 18 -101 120 46 84 127 124 69 -26 107 -118 -5 125 37 13 39 54 -43 -56 101 -26 25 14 -25 87 92 -60 -49 112 91 -76 3 -9 -83 49 76 -84 -83 17 -108 -103 -101 16 23 65 29 63 -10 115 8 92 -39 -96 107 -62 119 71 -121 72 -73 98 124 -70 90 -87 -21 38 87 -102 56 107 52 83 123 -54 20 24 10 11 -117 -110 -25 102 51 -46 41 43 26 48 115 81 -110 111 13 -19 26 120 -109 -16 -110 75 92 70 31 87 18 51 111 28 -66 123 46 38 -31 -31 -8 -118 13 -110 -70 0 -29 77 111 112 -70 9 105 -50 121 -5 26 85 67 57 -84 85 -20 -100 -16 -85 24 32 -47 121 2 74 4 -114 92 62 -114 -65 11 125 -80 70 -121 
26 21 1 22 -82 -42 -40 104 -125 -83 85 -97 -97 1 55 63 82 -80 -64 28 52 79 -9 -15 93 55 -3 -38 -25 68 -31 2 -40 99 -104 -121 58 113 -17 61 32 -60 -35 63 69 21 -3 23 70 -66 51 122 -115 -86 -20 106 -30 -22 69 -54 -82 40 77 -121 11 101 -114 69 -42 -2 -126 118 -61 -33 53 10 -11 51 -96 -69 113 -44 -75 126 -2 -94 104 -31 -115 -82 45 -69 86 -7 -62 97 95 -47 38 -75 -48 -88 45 20 9 -31 -99 126 -107 63 58 -122 -109 -17 -123 -110 19 -19 -12 32 28 34 -36 114 28 -97 83 -6 113 121 -80 -63 -94 93 -42 -85 64 -13 -87 85 -78 -29 -37 70 83 97 89 102 -49 -51 -121 -21 111 100 -34 11 -125 50 6 -11 44 -74 55 78 21 -115 121 -44 -126 35 42 53 -122 -123 -5 -39 -25 -44 -64 55 -94 72 35 -111 44 2 -100 47 -76 -94 -92 -32 
-40 -36 47 -19 106 40 66 -20 75 108 -94 -47 -14 30 43 90 114 -21 -111 -108 -77 -76 38 95 55 -62 -113 -21 -28 52 76 -67 17 -6 44 124 35 110 -24 -19 91 11 63 78 41 106 40 27 -42 -71 -81 10 -19 -43 106 37 24 121 -112 124 45 -36 -70 63 -41 -26 59 122 -44 -93 104 48 -81 -89 -3 88 -110 38 116 105 -33 -93 115 78 122 93 -14 18 -42 -124 -113 5 -32 74 -61 57 -80 126 -77 -123 -95 29 54 81 68 52 42 -42 -38 30 64 -70 -63 52 -120 -69 -111 124 -50 -24 -128 -35 109 -32 -89 -80 26 88 -82 -50 93 80 -21 19 34 48 72 -53 -121 35 -23 -57 93 -85 123 102 104 -115 -30 -74 118 -30 -108 99 -61 60 -109 -34 20 66 45 113 18 25 -123 -77 -56 77 127 80 -17 105 -104 -52 -107 -109 51 125 33 -107 52 23 -9 -56 -7 -68 -124 -115 27 -104 79 72 
10 98 -32 15 22 41 -37 22 -7 -53 -2 18 25 -108 -91 76 18 -57 98 70 94 90 -114 89 -106 19 102 -79 -85 -74 121 54 -104 90 -60 46 -124 -95 68 -3 109 68 16 -122 88 -75 83 -22 -4 53 -80 92 -113 64 53 39 -46 -101 88 -2 -47 -46 53 106 -84 -7 -103 -80 27 93 -82 9 33 62 15 122 -12 98 101 113 -105 22 77 -89 -43 -126 78 -87 -98 38 40 -17 120 93 91 38 -42 116 86 114 -47 -123 123 -13 -61 -118 -19 56 109 -46 -86 -124 104 -9 44 63 -6 -7 104 25 33 -112 9 -103 109 -29 63 -61 88 22 54 -86 -101 -79 30 95 -68 12 -104 42 -34 -62 -82 -58 58 91 6 -76 85 -19 -51 -11 -3 87 16 107 59 79 48 20 -28 -27 -66 -128 -104 -36 96 85 -24 120 -2 71 59 -83 14 -12 -120 -108 -86 -34 2 120 84 1 -49 100 -21 -117 52 28 -97 25 
-126 94 -102 27 -70 122 -17 35 -14 -18 106 -83 28 -9 -94 -91 12 77 -124 -114 70 88 -113 -107 -67 123 33 -15 24 -64 -118 -102 -98 -92 53 89 31 37 124 -111 -109 102 63 -81 -34 98 85 106 -81 89 -8 -11 -78 8 -116 -17 -124 45 97 28 -18 -21 54 13 -111 107 -26 48 16 99 -62 -93 74 -127 83 -88 -29 41 19 20 -126 -116 10 -76 -108 22 -92 -104 68 -123 -76 -78 114 106 63 -125 -43 38 51 101 10 117 9 84 -9 -36 -4 91 6 -113 111 8 28 -7 61 49 16 97 -55 -45 -25 -2 6 90 105 70 93 -65 108 -112 37 118 7 47 74 126 -117 -58 -39 17 -42 -55 -104 -14 -61 -43 -93 83 56 110 -89 32 -20 -83 -7 86 -13 -42 22 -32 103 -69 -42 -19 106 34 -21 -11 104 70 -122 63 16 31 -78 83 117 86 38 45 -60 -51 77 -79 124 -58 -120 -17 -99 30 -48 -124 
-39 -88 -14 68 74 94 -71 50 -92 64 114 52 -33 37 7 85 123 46 -126 -64 -5 79 -15 -9 22 122 -24 51 -103 57 -73 -14 97 42 56 43 -119 -15 94 46 -78 -48 -30 -110 -11 -23 103 -16 -105 105 49 -108 -72 36 12 78 -98 -12 1 -73 47 56 43 16 99 99 60 108 -44 -102 26 7 -22 -4 25 -32 103 -128 81 -2 105 -125 19 -95 -89 32 111 -59 -108 112 -3 67 41 41 84 -116 12 -112 120 96 -86 -110 -25 -107 -112 1 -11 119 2 71 118 107 74 10 -115 113 42 -4 -73 -66 -19 -75 3 23 94 87 35 -23 103 -101 74 18 46 -79 -89 62 -77 29 -75 53 100 -84 -96 47 -74 -83 -96 96 -85 88 -98 -103 -115 -95 48 -21 120 83 -43 95 -18 -96 113 -100 82 -104 -37 -123 -75 17 -70 -102 61 -37 -55 115 -119 -23 -45 -76 67 115 78 -48 -108 -3 61 14 81 -110 -20 -65 
51 95 93 6 119 57 11 -83 -55 -58 72 8 -94 -111 123 -85 123 -49 97 62 -62 47 -113 87 46 -52 -28 -2 95 -46 -65 19 -79 29 -104 -88 -43 -93 86 31 -23 30 39 12 -81 35 -72 -85 114 -103 -23 53 72 121 -116 -11 -59 -15 -11 -91 68 -75 56 -11 82 80 -98 40 -13 117 71 -34 -109 -18 -22 -61 -111 35 111 4 -68 -40 57 -123 -46 69 123 24 55 113 -67 123 -90 117 -16 120 -59 16 -96 -70 5 104 25 -104 -42 -125 -37 104 -89 -54 108 -29 36 37 -24 -10 106 101 -114 34 86 77 29 125 66 -114 -11 9 -98 23 67 35 127 -37 -69 -43 95 24 -67 -122 98 -87 -22 -122 -50 -45 -4 -72 57 -116 90 16 89 120 -115 -101 7 3 36 37 26 103 72 25 -62 -125 -18 35 27 -84 -87 126 -43 -108 5 -92 -24 -126 -35 -95 15 56 -79 104 -80 -66 -125 55 -62 -88 -37 92 
-113 -93 118 83 -89 -28 -11 -62 18 31 65 -25 52 -58 -115 29 73 107 -66 -41 35 -16 -65 84 -81 67 11 -15 107 -25 79 123 11 -59 78 -78 -86 -61 118 60 -30 55 37 23 125 50 -77 70 -99 115 30 64 100 93 -108 -109 33 -96 -122 12 8 85 -121 19 27 85 -58 69 25 -68 -126 124 115 39 -109 -15 89 72 -73 118 59 86 -74 31 -77 76 50 -44 108 -72 97 116 14 -24 -121 -88 -66 78 110 87 11 112 -45 -2 -105 104 -16 -16 48 40 -26 -22 126 -99 10 51 105 60 -121 -43 117 -24 74 3 82 -46 44 -112 -96 -102 -25 -84 -118 -68 43 34 -92 28 -110 84 -61 121 63 67 23 -56 -11 -127 -124 125 -42 -7 -26 34 125 -72 -12 -87 73 -107 -61 49 -63 78 109 -20 112 -111 -120 -126 -27 77 -5 37 16 -110 109 6 -109 -14 3 107 -20 -23 -115 -23 34 2 -109 107 23 87 
29 -39 37 -118 70 21 29 79 -105 -126 -100 19 40 44 -90 -107 50 -71 -120 53 -92 -11 -97 -79 -33 -63 -77 -13 -83 75 -54 -54 37 -16 -44 -22 6 113 58 -98 -12 86 49 29 -126 87 50 52 18 -69 -23 54 49 9 -24 -112 74 28 -124 -9 103 -49 -62 12 -64 -104 -9 -58 10 -79 -28 126 9 23 -101 11 110 -50 -65 0 10 -87 55 -70 -78 32 -54 -4 -69 80 -11 36 32 56 48 96 80 40 39 -38 90 -116 89 99 35 117 -19 17 -61 -83 18 77 87 -56 -121 -119 104 82 7 36 -94 -4 72 66 -76 121 34 6 33 -55 96 123 86 -71 94 121 -82 -52 -118 114 122 28 63 82 -28 -58 91 77 26 98 -15 60 95 58 -2 -108 51 33 26 -44 -22 122 80 -64 -77 47 -71 99 -5 69 85 -11 -32 21 72 70 -37 -92 19 -11 -122 5 -78 102 64 -79 -6 -14 82 21 -57 -67 
-113 -104 126 67 -57 57 38 -61 -3 -5 -71 94 17 -126 -92 -20 -90 -72 99 45 -67 -107 -109 125 71 14 113 25 35 57 -42 50 -47 -43 -11 25 -114 -101 -36 -116 -105 23 106 -88 25 16 22 -65 -56 121 108 -122 15 -128 -124 -43 14 -11 110 50 -82 70 -29 1 -101 89 26 42 -11 119 54 -115 -114 -96 -74 39 -80 -52 102 -8 70 82 0 -44 -46 -124 42 -31 -7 -104 -109 -88 -34 -10 41 -7 81 68 36 -58 -69 -39 -45 -55 123 -118 112 -85 87 -42 -91 29 41 37 113 124 -87 -101 94 -93 53 113 -53 -109 104 -11 -114 57 -71 -78 0 117 -115 -44 -66 -120 95 47 52 55 -123 89 -45 -82 -3 70 43 -89 97 9 -54 -106 122 23 43 -29 13 -71 -100 70 -21 -99 -69 -8 114 -7 -127 81 -88 54 8 46 15 -36 -36 14 -94 -120 53 4 -111 -128 27 -116 -105 70 -17 36 127 -116 106 107 
42 -91 -28 28 31 -27 110 -57 -101 -11 117 -85 82 -47 57 -12 90 -19 121 108 110 -108 -8 -123 90 -24 41 89 -12 -109 68 32 -72 41 60 87 16 42 31 -85 -96 -108 -42 -14 -26 -113 104 65 126 97 45 108 -11 38 114 -49 -114 -101 41 -124 -81 109 36 -25 23 -33 64 -90 11 -34 -47 -85 -13 41 30 -38 -72 -122 -101 -74 -25 -55 -93 93 111 22 -84 126 -79 -43 3 -32 -61 -90 -55 90 -122 10 1 17 -24 -46 60 -36 -5 91 -73 53 -31 84 107 -54 -99 15 -89 13 37 85 -117 87 -86 14 56 -19 -76 -127 72 -69 -117 -56 -52 -12 28 10 -47 24 101 10 -52 -58 -35 57 17 123 72 -71 8 -19 15 20 -60 57 34 124 40 87 -2 112 -110 10 -71 95 -2 -43 -24 81 -19 78 -38 59 -107 56 116 -90 51 60 96 59 -87 -18 79 -19 41 -15 107 -48 -56 -23 65 91 -13 -6 
58 115 80 -93 -60 -66 -15 31 -7 7 87 -19 -82 -118 -87 -114 -59 84 126 -107 66 39 7 45 -9 79 23 -72 42 12 52 100 127 -124 8 -61 67 122 -30 61 1 58 -86 -81 -60 85 63 10 41 61 31 -22 100 38 25 -37 -12 -81 -108 31 -69 72 4 -70 -51 -117 -3 -112 6 96 -50 8 -102 -8 55 -34 78 -11 105 119 51 -120 99 23 47 -5 -14 36 -85 8 68 -25 80 -57 34 -99 83 33 47 -39 -127 125 -31 -100 118 -104 -6 69 -113 100 60 66 109 31 90 28 27 -52 64 -57 84 4 47 37 -53 81 -62 -97 -15 113 121 -13 110 -38 -112 -27 115 11 -86 -126 112 -26 -59 93 7 32 121 -95 108 57 -24 -63 -67 24 -26 9 -23 41 -88 -37 -101 34 -49 10 -4 -33 111 113 -21 26 -13 -37 -127 -71 57 -120 89 50 -87 -58 107 -109 -120 41 -85 -18 51 21 24 -37 -15 -77 
-2 65 62 123 34 -83 -20 -115 72 97 105 73 -102 34 -47 -12 84 -6 59 63 -114 67 -24 -70 50 -101 -49 74 -10 65 126 117 -125 60 -15 37 105 94 -78 49 -65 -101 122 91 61 -53 -49 17 -57 11 -49 86 78 -72 -112 0 -45 97 -55 -53 -94 -57 65 -91 4 51 -54 110 -110 -4 -97 -47 24 -102 45 -44 102 124 -27 46 -121 -74 -123 85 -18 22 85 -61 -10 32 -113 26 -25 80 -65 108 -124 11 -38 -106 -121 -7 104 32 -108 22 -12 -5 -110 -37 -87 -102 18 -82 -17 -128 -59 -59 68 60 -27 83 86 77 -92 -106 -71 -88 33 20 -66 -88 -114 -90 -56 -94 60 -66 30 79 26 -56 -23 -85 119 -39 44 -68 -97 -16 -7 5 -61 -49 83 -25 -27 -116 -112 7 -95 -50 -80 -81 118 -8 82 50 55 113 -127 -48 58 107 -5 -79 -59 -88 -18 -28 -103 -24 106 93 56 61 70 31 -55 86 38 -22 
-91 86 -102 -101 -49 109 -51 -122 -34 80 88 -104 59 -45 -55 -128 124 -72 102 22 33 80 -13 90 -115 -71 -8 -42 -113 -98 -62 53 117 -36 -48 69 -55 31 -53 -88 111 -93 -64 42 120 -117 -85 -12 68 18 -117 -27 -31 -2 -65 111 56 -72 70 -57 87 -120 125 -52 -27 -51 -111 -81 -20 94 89 -37 -127 26 7 121 37 -78 -18 -23 68 -7 -49 38 -8 -113 -107 -80 72 91 -9 31 -28 117 -20 -54 68 -3 -7 -80 -37 -46 -115 94 109 -108 87 -110 71 70 124 -117 64 -53 49 -72 91 -58 105 35 -95 98 67 6 87 -81 -48 27 -83 75 -52 -118 30 90 104 -117 -18 -65 31 -75 -122 27 -64 70 -25 -15 0 -62 56 -24 -26 -39 -54 -87 -32 35 -40 49 62 6 124 -118 16 -101 -28 120 -90 83 -72 -59 -120 63 97 73 -123 73 59 5 12 -14 110 114 77 57 -101 -83 -37 -13 -34 -102 -6 -37 
37 11 -10 -118 4 -99 -35 -68 -29 103 123 69 48 -128 14 -21 6 -103 -34 116 -116 -85 45 40 89 10 -100 -72 -92 -105 -108 73 34 11 -45 38 40 50 98 -117 25 93 80 73 94 94 53 100 120 -108 -40 5 64 6 -84 -102 -113 73 83 52 96 103 -3 -125 -15 -47 41 -103 4 -116 38 -100 105 -11 -26 -57 85 -101 44 77 -81 -124 82 -16 11 126 11 -102 -56 -35 79 41 -60 77 -84 54 -98 86 -49 35 -30 117 -65 -53 108 38 -108 65 -62 -64 -114 114 -59 96 -30 -48 -34 109 -22 39 -54 -71 81 -113 7 125 -59 -90 83 22 -55 54 -117 9 -126 119 48 23 56 114 87 70 -28 29 -90 72 109 6 53 -40 45 1 -110 -3 -112 26 -5 -42 64 79 108 -119 6 -9 -110 -120 -17 -62 31 40 53 118 111 -102 20 -107 98 1 -101 -105 -39 73 24 -20 -58 41 7 -62 0 -58 -110 108 
80 24 -29 98 32 -45 -91 63 124 90 53 -21 -12 73 1 -42 -54 -99 -18 36 102 7 17 45 -81 -105 112 -81 -35 3 -101 46 27 0 17 59 83 -74 -7 -49 17 47 59 -122 -8 61 93 -61 90 -53 103 -64 83 -8 -19 3 16 94 51 -18 -32 78 -100 123 78 -83 -74 -94 100 48 -15 118 96 -83 124 -40 106 89 28 -60 38 -125 5 121 124 -14 -5 13 -47 47 -5 -78 126 -104 47 -52 -58 101 -18 43 -106 97 33 118 -114 -99 79 -8 119 107 61 -99 110 66 -106 -21 53 -110 -8 -122 66 116 58 -64 -116 -24 13 83 78 124 -2 100 -35 -97 -38 -21 -67 -87 -28 53 -108 34 -46 4 100 -24 -17 25 123 104 -96 -67 92 90 -3 -24 67 12 -68 17 8 59 118 -27 -38 -48 81 -104 -6 54 -51 -113 -41 32 -109 60 9 3 -44 5 -22 -12 66 71 79 65 -80 18 -52 -20 36 -44 
40 26 58 3 106 -117 28 101 -63 -23 -11 -103 -118 -119 85 19 13 -87 24 -9 -97 -38 -65 110 28 -17 1 104 -36 37 61 5 -66 119 -121 41 -126 -93 -113 -61 14 5 -36 -104 14 50 -85 27 91 68 20 122 31 83 105 -70 67 106 35 32 -113 -33 -92 -51 87 44 -10 89 -48 6 29 -34 -118 -7 -10 -103 -85 34 -76 7 102 72 -126 5 -101 -21 63 94 -43 98 126 101 66 35 -78 25 80 -87 114 -96 48 -113 127 -70 9 -11 -45 -76 24 -119 -68 -2 81 -66 4 109 42 68 -53 0 38 -54 -28 -24 -19 23 -127 -67 -64 -12 94 112 4 93 -85 14 83 127 66 108 -120 126 107 90 -68 -18 -57 -26 51 19 102 -39 -35 -54 -62 -52 -31 68 -118 35 -72 105 19 61 -58 -66 -54 27 63 13 -121 71 -116 114 -95 73 97 105 -80 21 -4 -106 -18 -38 98 49 -89 -61 117 -78 -26 -82 
28 -6 -21 98 57 54 125 -9 67 -124 64 79 -10 97 -103 89 75 -55 -19 72 96 -36 35 -62 -115 75 7 -126 -3 -19 49 -103 104 -100 -5 34 -46 122 26 23 126 -39 102 118 60 127 79 -121 73 61 -49 -86 -103 -14 -20 39 62 115 41 -69 98 91 85 74 119 -47 -21 75 76 7 -31 74 96 -57 -64 28 -57 -113 -93 17 76 -14 59 101 102 -88 12 36 28 54 -32 -3 17 -75 -56 -120 -121 -76 -45 83 59 53 -98 28 -3 -34 56 -59 111 -36 86 59 79 18 -95 -75 -70 45 -38 86 99 59 85 116 -16 -99 125 -8 -47 81 76 -115 7 106 -87 5 74 -31 74 57 62 -96 -13 -114 -78 21 68 -20 67 -98 68 38 -39 25 27 75 54 -104 68 8 105 16 -107 112 123 -66 117 69 -95 63 126 95 -32 -15 -19 19 8 -78 1 75 81 -60 -16 -85 93 12 -10 -109 -92 -70 27 -114 
-54 -79 -2 70 112 -12 -117 -111 52 -119 -15 21 124 95 -88 4 18 -87 79 -29 -19 -65 15 75 -52 6 94 -16 64 121 127 11 -86 -2 82 -101 -13 93 45 40 103 -98 -67 99 -2 102 103 -112 -113 54 -13 125 -11 3 72 66 -120 -90 52 -56 -97 51 84 75 -79 -90 -26 -91 -125 -109 -50 106 -78 12 -51 49 114 53 -63 2 107 54 -2 98 -72 71 -92 66 109 88 -118 13 12 -34 88 -67 5 -66 100 9 -46 -78 115 -123 -66 66 -74 -80 119 -9 50 -29 46 49 -59 -25 -9 106 -87 101 67 52 -15 79 -109 -54 -116 -104 -119 112 -95 92 -94 -107 -31 -32 -41 24 -111 79 17 -61 -78 -66 116 120 -90 -21 99 80 -48 -90 5 -61 117 24 -114 2 -80 -105 115 -46 116 22 -25 -43 -9 -65 -18 9 -114 127 77 66 62 65 58 -27 46 29 -75 -2 -61 58 66 -72 82 80 -69 -125 -24 -82 
-43 93 68 -67 51 -69 -4 -95 69 -117 33 -110 77 96 -45 8 -59 2 37 123 -127 -23 54 -61 -94 -120 21 -35 -117 125 12 97 -38 -48 -98 -115 -116 -101 -81 -47 -89 -48 -29 -12 -80 -72 -4 118 58 35 114 59 -116 40 0 -82 -80 -108 13 -68 18 -104 -99 108 105 61 121 118 88 41 72 0 122 -84 -11 -86 -28 114 -95 -98 21 20 -38 33 -69 90 80 108 -18 93 -88 -128 117 71 108 -33 4 101 86 92 15 30 93 -119 -54 -46 -77 -81 -60 85 79 90 -24 -87 123 -92 4 -53 -111 114 -88 58 114 31 1 -34 126 5 68 -44 98 83 -14 63 92 -66 -111 17 -19 86 102 -68 48 -49 102 -84 116 106 -9 6 92 33 65 -50 64 66 45 -66 -57 -15 19 -87 -60 6 -24 -95 68 -7 -78 -78 -49 -104 111 1 104 86 -83 93 64 37 99 -99 70 -92 -21 6 103 26 68 47 -117 87 
-40 80 -35 65 -15 -95 -70 36 84 -118 61 68 -117 37 -102 -72 -126 -38 -34 -26 120 -92 11 101 -85 -15 -2 -17 -96 -118 -57 -8 -38 -91 58 77 71 -12 -16 28 0 46 96 11 -45 -6 68 86 -43 -94 -68 79 71 72 52 114 58 51 99 -37 -67 -86 -44 24 80 -113 -28 23 4 -42 51 -125 -124 -109 -113 88 14 -45 47 -28 118 -21 -77 -67 -77 -25 49 -18 -102 20 74 -41 62 -98 111 14 -83 85 37 -78 44 -40 54 48 -21 69 -119 -6 25 -72 -33 -113 36 -109 -51 -40 -6 126 71 21 -110 -111 -20 -48 -81 92 -34 94 49 -125 -112 -36 -37 70 14 -56 -116 -105 -61 -91 -49 35 -75 -13 54 -125 -52 49 2 20 70 20 37 -78 100 85 -114 -62 51 -64 -59 -61 -99 -94 10 43 107 -106 -62 -82 -68 -110 -47 114 7 8 117 -45 -72 -10 104 126 -118 13 -80 110 98 63 49 -107 127 118 
-40 -99 25 -29 -56 4 -7 12 -78 54 -98 4 -88 -91 12 -99 -7 68 -108 -31 66 -98 -18 -14 13 -47 51 -67 -26 -78 53 64 80 78 36 -103 -46 -99 -91 -123 -44 -61 -118 -4 -23 22 27 -29 -38 -81 69 29 -50 -77 17 -37 5 -61 -102 -20 -11 -49 45 -58 -99 -48 96 112 -19 -123 118 66 73 -128 64 51 22 91 -106 -16 -118 -37 -114 89 16 31 -75 21 -30 80 -127 88 -97 -82 31 -68 -2 -2 46 -19 -124 36 -81 -50 -92 -17 2 -70 -54 25 44 -43 116 -70 -82 -124 -39 100 -102 60 52 28 -108 -45 75 -76 -111 -55 -77 63 55 -72 99 -25 -121 -121 87 9 66 35 34 110 120 -105 -88 39 -101 -126 12 54 -66 64 -46 84 -108 30 -120 -91 103 -69 -28 -97 116 -57 -121 123 79 -34 -123 17 -127 39 0 -7 62 -88 34 -38 44 -83 -112 106 -19 99 62 -126 1 70 40 105 3 -116 
9 -10 84 -112 115 35 -18 120 53 113 -97 53 107 -34 -35 13 57 -119 -70 -55 116 41 -83 -78 -85 -82 121 84 -105 124 -32 -96 -14 -75 -80 102 -40 -96 -34 14 -111 -2 -62 124 93 33 -118 -106 -86 -60 -33 -98 -19 -115 82 26 -68 75 110 84 -57 -50 117 -70 4 -91 -95 -35 -59 0 107 87 126 -82 -44 -37 -49 -34 -15 122 -93 82 -103 18 95 -21 44 28 55 26 -16 126 104 102 -72 109 12 -39 -54 -46 90 -75 -87 -40 100 126 53 52 93 -90 47 -127 -8 -56 19 89 52 63 117 -22 -40 102 -24 -64 76 33 46 -40 -5 120 43 86 47 -44 -82 19 -45 -29 -57 -80 -117 -10 50 4 63 69 93 -14 4 83 93 92 57 70 30 -122 103 76 95 -30 69 -118 -72 -13 -34 104 7 -78 -53 -50 100 -42 69 22 -37 -124 -37 57 -10 -33 -116 84 61 -58 -102 91 -52 -126 39 -85 101 108 
-75 31 96 -108 7 -25 72 -46 -74 44 -86 124 66 -122 1 30 63 120 126 -52 -52 59 19 -25 -106 -33 -23 61 11 79 42 -64 -19 10 85 116 -15 29 72 41 -56 114 -91 12 120 38 -87 -73 -98 -89 4 -21 -30 -106 83 -8 -11 61 55 1 12 -32 -63 -6 -22 -105 111 93 -76 55 6 -3 41 -85 -119 33 81 51 -39 112 91 93 92 62 -12 -81 56 106 108 111 108 120 -49 46 -14 -70 69 -30 -105 -6 26 -99 120 -61 -56 2 -28 27 -76 62 -117 16 28 103 79 -112 -106 -121 -6 3 118 103 123 70 22 111 -128 91 82 -104 -43 -21 54 78 47 0 80 -108 -102 -123 -46 38 -107 110 -115 -28 -2 36 -21 -6 -90 -31 -31 34 -89 -9 17 41 -45 -30 65 -87 79 119 120 126 -10 72 19 -111 -51 102 55 100 -44 -60 -56 84 104 53 79 -114 23 -80 49 63 -87 66 -25 125 -91 41 
