P3
64 64
255
72 22 66 -23 -122 108 -71 -114 12 15 43 124 6 69 12 -11 -30 64 -108 -39 -30 107 26 32 -124 -7 65 -31 65 -12 110 -119 11 48 115 -111 28 -84 -96 40 -69 75 36 -63 -112 -81 56 115 111 76 -51 -47 -73 103 -14 -69 98 52 -98 35 41 -116 -84 52 60 -97 70 -41 76 -26 0 -121 50 -93 74 66 83 2 54 66 78 4 20 7 -22 -122 -62 -52 -69 -32 -17 100 -20 -100 25 41 -69 95 1 -121 -59 -128 16 -9 -93 90 -71 118 -37 -17 -72 42 115 -51 -80 -34 84 -13 -85 -113 -44 -100 -12 -62 -72 -115 107 117 -20 -20 -4 -78 -20 -116 42 -111 102 -29 8 66 84 -63 -20 71 15 -99 38 -30 -111 -46 115 -26 -18 -25 41 -89 117 -108 -100 -31 1 26 -108 -18 -90 62 -128 14 -95 -120 80 -11 74 61 -67 -40 91 -29 -68 -20 54 -81 -45 37 23 -4 77 12 18 -23 -19 19 
4 2 2 43 64 2 57 -31 -117 9 88 85 -58 22 47 34 121 -21 -114 48 27 -30 -44 50 -33 34 62 113 13 44 -123 -112 46 7 -69 -19 10 116 -49 -107 -3 -89 106 -60 -67 -103 102 -73 5 -12 103 32 87 60 -47 56 95 16 -87 -21 -69 -82 -5 -23 -74 56 87 64 -84 40 85 42 -49 -65 110 14 90 -44 69 -34 74 -84 0 -95 -24 -47 89 -57 98 -125 51 30 50 48 -120 104 104 -33 -88 -108 -121 -3 63 -41 62 -83 101 -104 -125 -86 119 77 -42 -10 110 63 73 -56 -121 43 76 -70 73 -3 -22 81 -26 -46 -79 15 -25 57 -115 39 -112 -53 -44 -11 100 -41 32 91 37 118 -46 20 -74 -101 -36 62 -58 -88 -8 -113 38 100 97 13 -74 19 29 -98 -53 42 -59 -36 -11 27 -46 -39 -14 115 53 -104 -23 -121 -84 -96 -94 9 94 105 49 -41 121 87 -69 90 -28 114 109 -127 
-111 -72 -85 -42 -107 -95 -15 -24 123 101 92 48 -3 70 56 42 103 -38 -78 69 -60 -29 -100 -67 -70 88 24 31 75 5 32 -36 -67 -53 -77 -45 -20 -90 -68 -25 -117 -104 -104 -119 94 80 51 69 43 -27 -117 111 73 40 45 -125 1 69 -93 76 74 -61 41 -120 16 -36 -37 124 3 24 -28 -114 -80 -4 -105 -114 77 74 -44 120 -81 -33 104 -8 8 -107 125 -120 91 -96 -44 37 -29 125 -83 115 -38 9 -16 -35 33 85 -20 -47 82 4 -32 -97 79 -75 -105 -2 -107 0 120 29 22 -11 -90 113 22 -6 -106 -7 -8 -60 110 -45 -51 -34 49 -17 52 -99 65 6 -94 34 37 -15 87 -68 112 -20 61 -24 -118 83 94 -80 -60 116 43 -38 -18 36 -97 -36 -9 110 -69 -87 94 111 71 31 117 -23 66 -102 91 -103 -42 -52 7 -109 53 -111 -26 -108 66 43 9 109 7 119 18 38 84 10 -108 16 
51 114 -2 123 -110 -13 -28 84 -114 -64 -19 -27 13 116 121 66 6 -32 -42 -57 -117 96 -75 18 -41 -57 57 -84 81 -51 -68 -123 -64 60 -128 83 48 -28 -89 63 -91 21 37 -78 -118 30 -11 16 126 76 88 11 -84 -115 -100 5 85 -43 -79 38 36 -19 43 -28 -87 -85 -73 -38 17 95 26 -74 -13 -66 -23 -3 92 95 15 -37 -85 -26 102 -40 116 3 93 73 89 -114 111 125 124 27 98 -90 -58 26 -127 -41 -8 27 15 -20 89 -8 107 -75 88 -7 17 -125 -32 -10 92 85 122 -71 30 -45 72 13 81 69 40 51 107 111 -52 -20 71 69 -121 -43 50 -32 78 29 22 -90 23 -89 43 -9 -98 7 -52 -104 65 -22 108 -119 -8 61 78 33 -17 -71 -112 -68 38 88 2 -83 -83 -76 14 -4 81 37 -93 105 76 78 97 -22 -43 -82 4 23 -103 112 32 18 46 -18 -77 -99 -88 68 91 79 
28 -36 124 -54 17 -117 -57 99 48 -22 76 124 -71 -83 -26 -113 92 -22 -90 118 -37 70 -120 -119 53 -69 39 -34 1 -126 -83 -100 -33 42 103 112 53 -82 83 101 26 -97 -31 83 -51 -55 -30 42 52 9 32 16 79 41 -103 -123 -28 -63 -29 101 -61 17 3 35 59 -23 -108 113 25 103 -42 -78 8 57 6 -43 -126 104 127 -74 113 32 71 64 73 -32 69 -83 34 41 20 102 58 -106 -119 -11 -128 -99 -26 25 6 61 -53 14 118 -47 99 120 58 98 48 43 -126 -10 108 75 -41 49 -7 122 -38 -115 -32 -108 36 -23 -118 36 -120 113 62 -114 -81 -119 28 -91 92 -2 31 22 97 -50 66 100 -59 46 -81 29 95 41 23 58 -74 -9 -49 90 -30 -39 -2 -22 -53 -68 121 -6 70 21 -96 34 20 63 57 -12 -115 -6 89 83 -88 -119 -16 8 -78 8 -62 -23 -128 18 -61 99 107 -62 78 55 
127 71 50 70 92 83 104 -17 18 -95 -28 -96 28 -66 -13 -60 72 100 77 122 109 16 100 -19 -95 -88 -48 13 107 -98 -60 107 101 118 -79 -63 -55 26 49 92 60 22 -4 88 -44 112 30 -100 -43 107 24 -62 -6 -5 -80 -100 -92 1 41 17 31 109 -5 -124 -28 -83 -59 46 -57 -10 -118 -125 13 7 -36 98 120 -6 -2 -51 -27 -106 -112 -32 -109 -64 -4 56 65 -91 -56 96 20 -60 -28 120 114 -86 -90 -70 -95 -79 62 46 -72 -102 16 49 21 -113 126 -6 38 15 91 -71 79 -41 -14 -112 -3 59 -16 -111 1 85 10 -14 0 48 -83 33 -31 108 80 -101 -122 -33 76 -100 111 75 23 -106 -39 -14 -49 42 74 66 58 72 126 -85 -39 127 1 99 114 2 -108 -96 35 118 -116 -14 -111 19 -45 94 47 67 -87 71 89 -125 -71 -87 45 4 -21 104 77 106 20 -90 105 21 11 92 -106 -97 
-4 58 -107 9 -84 -89 28 0 -123 -53 -61 47 19 29 50 -52 -58 96 -48 51 72 -99 -99 -37 69 -121 112 80 -29 8 111 96 -63 5 105 -19 44 5 -18 -79 -48 -78 96 99 79 19 48 23 -14 -127 -55 59 31 103 23 -29 -18 -121 52 82 15 35 -78 80 41 28 63 -44 -95 -83 7 114 96 103 -42 -81 122 -122 70 109 -121 16 40 39 -9 -66 11 102 -58 -65 -71 -43 -30 -21 -90 -117 9 101 97 42 19 104 -100 115 79 -14 -94 74 122 -23 55 2 121 96 41 113 31 -76 -40 101 116 18 60 87 -3 98 -29 -122 -57 -60 -80 -38 45 -51 78 124 -64 112 70 59 90 126 -67 84 -34 -26 -59 125 27 30 -29 -113 48 -97 -25 -82 2 75 53 -55 16 102 36 -68 52 -15 -72 -12 98 0 -80 -67 126 110 -111 -36 -44 87 -39 -16 -11 61 -128 -91 92 -25 84 -35 51 10 39 -62 
112 75 127 36 61 57 -104 -96 -72 73 -35 55 -73 111 -109 -115 70 -20 -3 60 43 126 -30 7 -26 55 -27 -103 -64 13 93 -80 89 92 -44 22 21 -19 -74 -51 55 20 -124 111 -125 24 -4 74 -123 -6 -122 -80 -8 105 -73 -33 33 29 -7 97 43 87 19 4 -77 103 26 -55 85 -47 23 13 101 -100 124 105 52 -8 -77 -71 115 58 -23 108 36 34 -52 -60 63 -58 -91 106 -99 -72 110 -48 -96 9 -102 117 90 -78 -126 -65 -50 -2 41 3 -9 -36 -67 107 -105 -89 88 59 73 37 127 -119 107 37 -13 9 94 -30 -39 -2 107 -12 116 -59 39 -9 -123 -11 118 -81 120 111 12 -75 90 35 -35 -78 94 39 87 -35 -80 -62 -125 37 75 -31 -121 -91 -32 -14 26 -44 -72 -64 76 62 -74 -61 109 -82 -78 -7 101 13 29 67 -64 124 106 24 -39 -101 91 93 -64 38 -66 -57 -53 31 -70 101 
-12 115 38 65 49 92 -124 31 12 55 25 -16 -60 -75 52 5 50 30 -100 -116 57 -9 105 121 31 41 65 106 72 -5 80 -68 -18 118 126 -96 -45 3 -65 95 -70 88 80 -2 14 4 4 -64 34 -96 -52 -37 25 54 85 -73 -34 -105 34 -89 -109 -15 100 3 105 -30 -93 -68 102 99 28 33 59 108 -97 73 112 -93 10 18 -61 86 -19 -36 -115 68 -108 108 91 55 20 -18 41 -8 113 18 -37 21 -50 66 -9 -22 -30 51 -42 -126 -4 -58 -91 -122 89 106 -35 -58 -58 107 -118 92 87 -27 -109 -21 85 60 -28 -58 79 64 -36 30 3 84 -119 -27 -120 -33 -24 5 -89 14 -117 -128 120 105 71 64 84 -46 28 44 -72 47 24 -115 107 124 85 58 -68 -79 -40 63 6 98 -91 14 -63 -114 19 -24 28 -97 105 21 -120 -79 -44 -35 4 -16 10 60 32 -95 -54 11 30 32 70 90 81 31 
-102 87 1 64 102 66 78 -8 44 106 -104 21 127 34 -58 84 127 74 -60 -119 -121 100 43 82 112 -56 -15 54 35 67 85 61 26 -43 -4 -128 24 75 122 -61 54 -110 -39 53 52 32 10 -77 107 -50 -68 114 52 -25 68 -92 -80 54 90 84 -8 -81 17 19 5 15 20 -100 -39 14 97 -113 -96 59 -59 85 91 -49 9 70 30 -58 -72 82 46 -4 118 95 -78 -48 -77 -85 0 68 63 -124 83 83 34 -83 97 3 61 -127 62 -126 86 25 -47 96 96 -16 -90 25 -62 84 -106 -71 -77 73 10 -26 117 -118 44 -76 15 -2 8 -80 -84 -24 -77 -22 106 -15 109 -63 12 64 -95 -21 -80 -57 -124 115 28 27 45 80 -28 -73 55 90 66 -30 15 81 -30 23 3 -113 127 -74 -7 -23 41 -25 43 -76 -89 76 -96 88 20 -92 75 -80 -64 -8 1 -91 -80 -73 0 -14 -101 -114 68 -3 37 -58 
-115 -92 -3 8 14 -90 -17 58 91 -105 6 123 -17 -102 32 59 75 -32 52 -53 6 100 3 -123 87 30 20 28 28 -72 98 42 93 96 50 108 7 34 38 -31 -71 44 93 41 -58 -3 -29 -111 94 -104 -36 101 -4 -32 106 85 -2 -2 -16 28 -73 83 -59 22 -76 -9 2 59 -103 40 30 83 -45 -6 -5 27 -8 95 -84 88 -9 10 61 -11 -22 -89 -54 105 -90 -69 5 -34 -114 -54 -12 -62 -62 118 -2 92 -98 -100 47 -15 23 -86 13 -112 11 58 -24 3 68 -91 120 -82 77 67 24 116 126 -99 83 14 104 -57 -48 -85 62 79 -121 92 107 55 78 -125 -31 -37 20 108 22 124 112 -39 34 104 -120 111 44 32 99 -86 -67 54 56 39 -3 -119 82 -69 -40 -39 24 69 17 -26 72 115 -62 92 -33 88 -40 -49 50 -6 57 -70 -23 -28 -38 -51 -113 25 4 72 64 -126 -47 18 62 -86 
-21 -42 111 125 -67 -73 112 0 20 80 88 108 -96 -118 -26 89 -60 81 62 31 31 77 56 -94 -107 -9 37 103 10 -29 -110 118 -70 2 -13 -9 -70 100 -9 78 52 80 59 -44 90 34 -83 -98 115 -21 -67 18 58 118 -75 -49 -19 -38 -73 -8 62 74 -18 -8 76 -30 -16 -122 -58 104 85 122 56 -112 -49 18 50 125 -80 -90 106 -18 -72 36 -28 -19 -13 -46 -55 -85 -53 -121 -11 -70 -127 -62 29 -15 -56 99 -38 -99 94 19 46 46 38 97 43 86 -121 21 69 -65 57 42 -82 -83 125 -9 89 -56 127 -49 -124 1 18 33 115 90 5 78 -8 -30 -32 -90 -112 -122 -121 -69 -35 15 81 -94 79 -118 77 -3 56 -54 -11 18 -109 117 97 -105 -10 115 57 -23 77 -67 -73 70 -96 -104 109 49 32 -12 108 125 -124 -67 -97 -45 -56 108 81 1 55 71 -110 75 60 -13 98 51 103 27 -100 -75 
88 84 123 -8 -19 -24 -87 -115 94 -106 -118 98 -45 42 54 -100 -105 -121 30 78 78 -80 25 -118 -91 -5 62 -116 23 -38 -63 112 -81 -67 -24 -99 38 19 -86 -124 -87 53 -26 125 95 -100 -102 118 -93 -72 69 113 -24 94 124 -114 90 -70 -101 -15 21 -36 -31 -60 -102 -54 -31 -63 93 -116 70 7 65 -83 5 33 -55 31 -105 -19 -41 -36 95 64 -69 91 -49 -107 22 -22 7 -85 -57 -24 -17 99 52 82 37 -111 -34 -22 25 -96 24 -99 -63 98 -68 89 -49 20 -74 -82 84 -15 11 -93 -121 -96 -114 15 -53 -42 -9 -68 58 -85 15 -34 62 109 73 87 14 -31 116 -49 -61 49 -87 -109 69 -33 66 -103 -47 77 62 -40 110 76 -25 58 35 96 -10 -36 12 -123 59 74 115 -123 33 -127 -26 -107 -47 -86 70 -6 62 -117 -38 -128 -91 -84 78 -29 5 -68 -81 -19 -10 -45 78 110 -80 -39 -13 -20 
37 103 -15 -59 105 -40 -37 -70 -125 34 -75 65 46 16 65 -45 60 -113 -73 65 -53 -26 47 -61 -70 -4 -79 -21 -41 37 88 124 -115 -55 -63 118 34 -99 49 37 64 102 102 110 118 -89 66 -78 -73 121 115 -125 96 35 -58 -101 32 120 7 119 -98 -34 115 -85 -88 54 -95 -54 83 82 -17 19 -72 -43 1 -82 125 67 -32 53 60 84 -71 29 -10 0 -72 24 -8 -65 15 -105 -98 3 -62 -58 -72 100 17 -117 -74 1 -97 -18 -42 -96 29 -45 100 -3 -119 -96 -47 -62 -67 -55 -62 -11 97 -69 -75 -17 -46 -45 -14 -107 26 -85 121 43 -73 -81 -85 87 30 2 119 59 -42 -37 -72 96 125 11 35 -70 84 101 -79 -75 34 -26 37 -12 59 -104 11 85 -61 -124 1 123 53 -84 -46 -46 -81 75 15 6 -90 71 102 -93 82 9 95 -90 110 -112 -37 -112 119 2 6 50 26 17 -120 -35 -107 -119 
90 74 -75 -84 30 101 119 -84 107 31 -13 81 -62 71 90 -95 109 73 -79 74 89 42 -53 95 -37 -27 112 100 67 -122 109 -99 80 36 75 -19 9 -62 -102 117 97 15 70 -92 -43 33 70 67 106 -8 13 67 -94 -40 -93 126 62 -109 99 -126 -103 80 32 106 -13 -22 88 -3 46 115 -14 -113 2 57 52 -41 -39 -6 27 -61 -13 41 8 22 -127 43 20 -64 -66 -10 -62 -40 72 98 67 60 78 27 -71 124 14 -84 -117 16 102 -64 -25 -65 -69 -125 -124 47 44 -116 -60 -83 -73 -40 -19 -11 -48 -80 -50 -104 -109 -111 84 -31 45 15 -35 59 59 -24 -53 33 -87 -77 -31 -28 -74 -27 -109 -30 114 88 17 -87 -79 126 -97 2 -81 -18 -102 67 0 110 -92 45 125 2 105 57 -22 53 -39 -107 104 59 -7 -97 33 -114 -126 -109 -26 19 -68 -104 -110 93 -102 66 -53 -76 5 -53 36 -87 -7 33 
-85 -30 -39 -106 -105 -76 -85 0 -17 -90 31 -111 53 -94 37 28 53 98 53 71 -65 79 -119 11 -124 -114 -42 40 -73 80 73 99 51 -93 -6 -54 -41 -90 75 71 -52 106 -40 2 -116 126 -98 66 -32 -45 -119 32 -94 -109 43 39 -95 2 79 90 -46 25 -67 -123 60 56 81 20 95 28 91 44 6 53 47 19 -77 -51 85 -108 33 -34 -76 67 114 -33 107 21 97 58 -18 -77 -46 -84 58 15 101 11 35 -60 39 127 112 -84 -76 -97 -65 -25 -20 21 124 -115 -12 -80 -47 -26 16 -68 123 -16 -10 106 -91 -54 -105 95 -39 -4 106 -3 65 17 -4 -79 -67 49 -47 126 25 -66 19 21 -52 -121 69 -98 111 85 91 106 -59 -47 -43 -22 -100 109 74 -10 -23 52 116 43 69 113 -36 -125 -94 -82 2 -69 -19 -108 80 -70 29 -107 -40 12 106 -77 118 -81 -123 -53 -101 -94 -72 101 -103 -94 -102 14 
77 -33 127 43 99 -95 89 -28 -36 -58 -7 45 1 23 66 -39 35 -84 -115 25 92 -109 -27 119 54 -98 -35 -49 -63 120 93 15 -41 -36 -71 -69 126 -109 32 -38 90 26 8 -37 49 -55 -75 -45 -11 -61 109 82 87 83 74 13 113 40 92 -78 32 -71 66 -9 22 123 -77 20 15 84 -18 -23 110 -10 -59 32 -64 -6 115 -74 -66 -32 -120 -107 -77 82 34 -91 122 126 88 26 56 -102 19 78 -106 70 98 -91 -102 81 15 -119 -57 -44 -87 8 80 29 62 15 126 71 37 50 -103 71 -41 -108 -58 49 -82 126 75 65 -51 -31 -120 -81 8 -94 -127 23 44 73 108 -43 -47 -68 115 -113 75 -15 -42 -17 36 -16 -73 124 -123 -3 45 -77 124 120 -11 -55 -38 -3 -7 98 -96 123 -8 -51 68 101 35 22 -95 -106 -90 109 8 -4 93 -84 -19 21 41 -14 -110 86 -89 16 78 -99 89 41 -101 83 
11 -69 -50 5 -119 20 -23 45 -87 -116 -61 -49 121 76 -51 86 -8 59 -21 -95 47 126 -9 -42 -114 -59 -13 -24 111 15 60 122 -54 -117 127 -44 31 106 2 -56 118 69 25 -17 -111 102 -59 10 -95 -79 -85 80 49 35 -90 63 -23 -102 -89 -40 41 -28 83 -12 -17 83 -55 15 -67 75 87 -77 -112 112 35 -94 86 -24 44 120 -101 88 -56 76 123 112 -117 -28 -118 52 61 -76 -104 -111 41 -120 -28 114 23 34 -67 110 85 -51 95 120 112 -75 -32 29 46 -5 117 119 72 112 -25 84 86 114 8 -109 -90 -96 -92 -49 -88 -119 66 -65 43 127 -83 -128 78 13 -8 62 67 90 91 113 86 -48 -24 -97 66 80 115 24 67 123 43 -23 -101 -48 58 68 -39 124 -125 6 -4 49 6 -54 -66 127 9 2 -39 101 -14 48 54 92 79 -9 -84 -62 16 111 62 60 90 -39 13 -108 -99 102 -112 -96 
108 13 -46 -14 -41 17 114 -31 -110 76 -58 -123 -5 124 97 76 117 -114 -114 -123 -3 77 -63 88 39 78 108 69 -75 125 -27 -95 -118 56 -108 99 73 -122 -60 91 82 -117 97 79 -121 -62 27 -4 81 -87 -125 80 -10 -60 40 -98 -109 21 -29 73 -110 73 106 -100 -126 127 127 75 6 68 -89 89 79 -120 40 -41 75 -62 84 29 108 -41 109 -29 29 21 -126 -80 -87 -27 121 60 -82 -29 89 -80 99 -40 -4 -23 -99 36 -62 108 44 -22 -61 119 -83 25 -108 -103 112 -127 125 -115 23 127 62 -64 -28 55 125 20 28 -42 -60 -2 -81 65 -24 77 -28 -85 58 17 22 -3 -119 67 23 -99 93 -120 -97 -38 -107 -74 -38 84 -10 63 -117 -13 83 -89 -54 -104 -89 -6 -39 16 -57 -65 60 2 -48 82 1 -39 22 -105 120 115 32 -105 -51 -74 -51 40 11 -60 104 22 57 59 -66 4 -45 -27 126 46 
-11 71 -19 -79 73 -66 5 -55 25 -102 98 17 14 2 -88 91 56 118 -124 -62 -70 108 -39 -13 39 24 120 123 -3 -10 -87 115 -67 -105 38 -121 -43 -86 81 -18 69 51 127 -46 54 40 -83 -19 30 -79 -79 89 30 -117 -52 -59 -93 -60 65 33 -68 -22 20 -7 2 58 -127 87 100 83 -58 41 -122 70 123 60 -18 42 43 -116 -37 92 101 122 -25 51 64 11 -9 1 -85 52 107 -65 47 -20 122 -80 68 -34 4 11 9 11 82 -124 71 -64 46 -15 77 11 78 -77 5 -75 102 -60 64 94 -59 107 19 -80 44 -63 -99 38 -15 -31 5 -10 109 -115 -127 63 -110 72 0 -64 -70 77 -53 9 -128 80 63 -26 21 -2 -59 90 107 -40 11 23 26 -88 61 12 11 -63 -126 120 80 4 -73 -30 -52 55 -93 -121 -124 -17 -112 -123 -65 79 108 -43 79 -79 48 -70 10 60 -47 36 100 -114 49 -18 
80 -77 103 -96 56 -98 3 5 -43 39 -116 -38 -106 -100 96 86 -20 76 44 -69 126 -36 -11 -120 -104 -57 45 -4 -43 94 -20 38 -111 -45 71 -55 -14 74 -50 72 -16 91 35 -121 120 3 94 101 -49 -118 -96 78 103 -106 86 0 -35 -125 125 -77 97 -23 -39 -13 61 -96 61 48 107 13 121 92 -25 28 100 96 32 -62 69 111 77 -27 61 53 -5 -109 -76 -39 -105 -79 -115 120 -101 -25 -21 89 -120 42 -119 -13 -74 -126 -48 -98 31 53 127 -66 -9 68 46 -60 -86 107 121 -90 126 -82 -127 -107 96 -114 15 124 118 122 -43 127 -92 -34 115 -38 98 68 -7 -127 -8 121 64 -16 61 -19 54 103 -40 -81 15 87 -35 16 109 63 -98 -5 -69 -107 118 -111 21 -101 -17 8 118 82 -52 112 83 -59 105 19 55 39 1 109 -114 -39 -100 -99 -79 -6 45 31 58 76 -102 117 -31 -112 -122 -10 44 118 
-2 35 -55 75 -109 -100 18 125 -80 73 -92 -79 54 51 12 82 81 61 77 -3 -37 7 74 118 124 44 7 3 -94 -77 122 34 -42 -61 109 -23 -33 127 103 -112 72 -117 -62 -3 63 78 -48 16 -117 -99 14 103 -91 89 -35 -95 -123 100 37 -88 24 31 -54 110 98 -73 89 66 56 64 -45 0 76 22 126 -117 100 79 -101 111 -20 -87 -42 18 -126 52 -76 -120 -104 -39 49 49 120 123 -97 -38 51 120 29 -22 -71 112 -21 -123 -122 106 17 106 57 44 -39 38 -43 48 -72 89 100 109 -31 125 -58 -110 -82 63 14 -51 26 65 -58 -74 45 -128 40 -104 6 -82 -126 -106 -103 -69 -62 -14 -31 24 36 26 -16 8 -121 -46 -123 -51 -28 -77 -116 114 2 38 -76 -56 -35 97 -56 6 121 78 52 -5 -28 77 -73 39 65 25 63 -28 52 49 -20 59 -125 -14 10 105 38 22 -37 40 61 16 -16 -102 
-16 57 32 106 -121 84 102 -21 34 30 19 99 -73 83 -57 -21 -124 -76 39 8 39 -80 -16 78 71 -51 118 -124 93 -25 -98 79 33 -66 -71 41 -110 -96 21 -76 62 41 -105 -11 -5 95 97 -128 -108 -119 8 -69 -71 -7 -119 1 71 1 5 -92 104 -93 115 9 -31 -83 50 117 78 -57 -87 -116 112 66 3 108 33 100 108 53 109 116 113 40 -19 -6 -88 -76 123 -82 -39 -29 -47 77 109 -76 -6 31 -87 73 -26 83 86 87 21 89 -61 55 61 -81 -21 -85 37 93 -45 -110 -40 -5 72 84 42 34 -72 -4 111 38 49 -22 69 -38 -77 -84 46 10 4 68 -30 72 -6 33 -9 -26 -52 -100 -60 32 48 -99 -101 120 113 -58 26 42 -61 -119 -49 -12 -13 -107 -49 -88 66 125 -78 -59 -63 22 -115 -68 55 6 -92 -125 -94 -24 35 82 -122 -66 74 -9 -123 100 -94 -56 110 114 -67 98 8 13 
11 74 -117 62 -112 -52 84 30 -118 11 36 -82 14 71 -105 49 25 -99 -17 100 -107 -11 -56 -73 -66 -74 43 -4 26 51 -119 37 -3 -108 99 -114 98 55 -84 108 66 81 -102 80 24 -79 1 49 79 -15 21 100 103 -34 29 38 21 -57 35 47 -6 45 -44 120 -63 56 7 36 -17 52 16 -79 5 -86 -126 29 92 -125 -51 43 -12 -29 -112 92 66 45 3 87 -12 38 -121 111 83 92 -24 -107 20 111 -71 -125 -93 -54 54 40 117 -72 -60 82 60 -109 125 -79 119 -115 14 57 -70 17 -112 47 -73 -105 -97 -118 115 -120 32 -120 -9 90 -117 28 -92 -63 -61 -103 -7 -119 -21 -74 -100 -23 104 -109 119 118 -52 -78 8 -36 -31 -65 117 -127 -55 -24 -119 -22 -16 -126 -60 125 30 105 -66 97 3 -71 -22 -17 112 -121 -39 -40 -102 -48 -50 103 -125 -42 69 102 22 -70 -25 -32 35 114 75 21 116 16 
18 18 -8 80 115 -5 10 -34 -21 -7 -27 69 82 -127 23 -95 -24 26 -9 -83 -128 15 -25 -24 111 12 -38 58 -96 -50 -55 50 -32 -62 -126 -45 -66 13 -78 43 7 -103 -17 -39 -102 -122 123 3 -95 115 -79 34 2 25 11 113 -92 101 43 -60 52 -12 -10 -108 -73 -7 105 -10 7 -101 34 -115 -76 -111 103 79 25 -30 83 -70 -42 -124 92 -40 -99 -25 75 67 77 -11 8 -126 -21 127 23 35 121 0 26 0 -100 -69 -115 81 78 -11 33 103 88 116 -95 47 120 -3 9 22 101 -45 -40 -77 -55 -31 -75 -75 -32 76 -39 90 77 115 90 105 48 103 -70 126 93 -37 101 54 -49 7 101 72 -124 110 -34 -22 -63 -73 30 -116 25 83 -63 -7 -97 27 -45 108 -113 -83 -43 -65 22 17 62 115 -20 35 -87 61 -87 -113 -123 46 125 100 -104 64 -100 54 76 -75 -119 14 -80 -87 42 -124 22 57 
51 108 -8 73 125 -74 60 -23 -39 102 39 3 117 45 49 -14 17 74 -78 -83 -128 -2 -29 -118 -115 -108 52 -73 -104 -55 112 75 54 105 20 -77 -97 -48 -98 -8 -74 69 -5 44 -15 -84 31 4 -10 -46 49 -9 81 21 -126 -34 41 -74 22 66 0 -122 -115 55 111 34 106 15 -14 -120 8 41 -50 -125 85 64 49 -13 68 40 70 -11 32 -104 -118 34 -10 52 -40 14 118 89 -108 -125 -112 5 -91 -6 -109 24 -124 -100 65 -46 -97 22 19 -48 11 -41 -7 81 77 -103 105 -41 -68 97 12 21 -18 2 110 -125 -122 126 8 -85 122 -100 -60 126 -72 -123 -48 88 -100 99 42 -89 59 -93 120 8 -68 98 -32 -8 67 108 15 50 -18 -4 -75 117 124 62 33 118 -38 101 116 19 107 69 107 8 -88 21 47 100 56 -89 108 117 -119 -52 110 -52 -71 -4 -2 -88 -6 53 30 -10 115 -66 109 -51 
-92 -31 -32 16 -90 -53 -105 79 97 -58 51 25 -19 32 14 120 -20 125 -60 -90 122 68 79 -12 121 -20 -21 108 44 -40 -71 80 -70 26 96 -32 101 -9 49 70 62 -29 96 44 4 -19 -92 -15 107 -23 24 102 46 -25 -38 -89 84 71 -109 -128 32 77 80 91 -26 -80 60 76 40 -20 -109 102 -47 115 -109 -43 97 -73 71 77 -95 -33 51 -49 -57 14 -10 -101 -44 10 -100 -11 87 -20 81 62 -98 -115 11 70 123 -98 45 -52 18 64 -94 -14 -9 106 -65 26 74 -14 105 -111 -127 97 -84 86 -22 73 76 -62 55 29 1 85 -85 -117 -101 -90 42 72 115 -69 -120 -107 47 -127 127 -18 27 73 -30 -124 -38 -29 101 -120 58 81 81 7 20 -120 36 -108 -35 79 33 -7 117 -54 66 -24 -121 -53 -2 -74 -52 126 37 -25 -56 8 108 35 -21 -46 43 -90 -93 125 45 -73 6 81 76 100 33 -20 
94 -106 -72 32 0 64 -21 -2 118 56 125 -101 32 -59 36 13 -23 -113 95 21 54 3 -110 99 58 25 53 6 125 -43 -13 91 108 -84 123 -21 108 -25 106 -30 32 -24 -3 -64 46 34 77 24 50 44 -83 -25 47 64 -53 -24 -40 1 -18 86 -42 -30 49 -62 15 -83 47 123 21 -103 -35 -76 2 -36 117 49 126 66 -56 -80 110 118 25 29 55 -28 6 16 -27 117 -26 60 -41 24 126 -25 69 -83 99 90 -57 66 16 -55 31 5 -6 29 72 68 78 54 -70 103 84 -15 76 -39 -126 -79 79 105 109 -89 1 -21 -113 71 26 -14 -95 -31 -76 49 43 -45 55 -90 113 -2 -22 -65 53 -91 -90 9 24 -14 -29 26 -92 -78 -125 -111 90 4 125 -23 75 23 93 109 120 18 -98 -92 102 -43 75 -41 -44 54 23 -118 91 -67 -109 -14 48 -10 13 84 42 16 -27 -124 21 -30 -18 -33 -6 -53 
77 115 93 -20 24 -61 66 -30 27 -105 -104 -79 34 -12 -18 53 103 31 45 117 -14 -42 5 -40 -38 -103 -68 -55 122 55 21 -57 42 115 52 -62 -74 -10 -91 -46 -114 63 -124 48 -77 -13 -28 27 19 -111 16 7 104 22 95 68 -81 -101 -115 42 -46 35 114 -3 -106 38 -64 77 29 -27 -97 43 -92 -92 -38 88 -104 64 116 43 -47 4 50 -70 26 18 -2 74 -83 12 116 -127 47 102 -2 -59 13 63 -109 42 -92 51 -43 74 87 48 -94 -17 112 -106 28 67 -101 -51 -3 53 -33 124 127 14 -120 116 -113 56 -38 14 125 103 -52 17 -110 113 -60 -25 -69 28 24 -34 -116 9 117 40 -53 -112 117 73 70 -43 -59 -59 -29 -51 58 -14 -123 -107 -128 4 -4 77 21 15 -66 89 118 -6 -11 15 -39 2 24 -50 -87 99 96 31 -84 -90 116 114 -21 88 -65 -90 -54 70 60 75 -55 -72 -104 94 
72 -41 -72 62 -46 46 77 -84 48 -28 123 -39 72 91 120 -12 -127 -19 -26 110 70 39 21 -111 -20 -48 -36 -74 9 -11 21 81 -51 77 16 -96 123 93 -52 -85 -62 -57 5 -118 36 126 0 -91 108 102 20 50 -115 -88 -61 -7 121 33 -80 -125 23 70 84 100 -109 100 5 -113 66 81 59 5 25 -64 -113 -68 63 15 99 -85 118 -10 93 4 -96 34 126 26 -62 -82 29 -39 -12 114 62 9 -42 -62 -104 25 -109 83 30 -84 20 46 -23 83 61 77 126 51 -61 92 -73 -29 -3 54 -2 -64 -28 28 26 90 -114 88 99 -27 -102 123 -2 46 -50 -99 90 99 -53 68 54 -120 17 -75 -68 85 -111 116 57 -113 42 -73 80 15 -44 106 105 -30 66 76 -56 92 -57 72 -118 -105 -27 100 122 49 41 -80 57 -71 -27 117 15 119 -23 73 7 -109 -128 -42 -93 -44 65 -116 -72 3 -39 1 95 -95 
73 105 -72 -82 -50 51 -33 119 -28 26 49 74 -113 -64 -62 -7 10 -55 -115 -118 33 -80 -33 98 62 -104 -27 -105 25 69 57 -30 -81 114 -111 -3 -91 114 117 10 12 38 85 -101 -26 -105 21 112 -32 -93 123 2 84 91 -28 18 115 -54 -87 -116 16 99 -18 63 -43 -127 -68 -6 115 50 -123 127 -40 90 -102 -65 -15 -80 49 -46 -45 44 -43 -89 -121 -70 -70 -6 -123 -29 7 21 -58 -10 -44 -100 -9 -111 24 107 -60 -99 106 29 -9 -124 -36 105 53 -115 60 9 -71 -111 49 -64 76 -21 -69 81 79 -61 -26 23 58 -69 51 50 77 75 29 -111 104 7 -82 -33 -117 -116 73 65 -103 -122 -55 -45 24 -6 -108 -28 102 81 -75 -74 -108 -100 77 78 88 -128 -128 -90 -52 29 56 -76 36 103 -107 47 -13 -34 112 13 101 59 -32 -3 -75 118 -30 29 71 -104 83 -37 -75 -96 42 14 33 42 52 109 
-58 -20 35 -22 84 -72 -103 72 -105 11 -44 125 -59 -74 123 123 45 -35 24 -13 -11 107 -49 -85 12 121 58 46 35 110 27 -23 91 62 84 -81 -10 -19 119 -113 120 77 -116 62 -125 8 58 48 101 -47 36 91 62 115 -121 -55 108 -63 119 15 48 -109 -8 12 -47 -52 -69 -55 58 -77 -40 -77 1 101 113 4 -20 43 52 82 -3 88 45 60 75 52 6 -73 -11 126 -58 -90 18 63 -78 99 12 -19 45 -59 33 -123 121 34 -22 -21 -91 87 23 -39 41 -108 -79 87 -48 124 11 87 52 2 85 122 40 -26 -71 90 74 69 -57 -9 12 -23 125 5 -117 -24 112 50 64 8 -117 106 -100 -67 65 -19 58 76 69 111 -51 26 105 -11 1 36 -49 75 -24 -104 -62 116 2 65 -7 -115 42 106 63 106 114 -53 -44 -113 -119 22 125 -61 99 66 -78 -80 92 29 -89 93 -64 -10 40 41 -113 -21 
-98 -111 -84 -104 -97 -42 -126 -34 -64 117 -86 22 5 -77 44 2 -9 15 -61 -86 64 32 71 -25 -4 -121 -34 -92 -79 -18 16 -49 0 -68 -25 -97 19 106 -2 -44 95 41 -22 -29 -35 -106 -27 -43 38 -87 0 102 73 -57 -51 70 79 44 107 1 -102 123 80 -101 57 56 -70 76 35 57 -96 -126 99 -117 103 65 -94 77 -106 72 119 22 -82 64 -35 -5 -121 -83 40 114 46 67 -19 127 -34 39 -73 25 -13 -38 83 20 -35 54 32 69 -10 -62 18 13 -118 9 35 57 74 -127 -76 81 47 92 -61 93 -97 -79 92 -3 89 -108 24 -52 111 -22 -32 -52 33 1 18 -105 67 -92 -92 -51 -83 -57 -122 -9 -56 59 73 -9 -104 13 -43 -73 63 50 -74 24 -58 78 -28 -74 57 -59 -125 -39 71 22 113 10 -70 -107 -40 -25 93 -34 -32 -90 -102 -87 -98 -78 55 -13 106 118 -90 33 -114 -20 111 -14 
-93 40 56 -89 -127 127 61 -14 -118 119 -120 -30 95 102 65 64 13 -37 106 43 -114 -95 -97 -7 -105 70 27 38 51 11 -104 87 51 -48 126 53 81 -69 40 91 -78 49 -67 18 23 -2 -46 -93 -37 61 78 106 94 -19 -29 -11 52 127 -101 -25 -118 52 63 61 5 61 114 -43 -8 27 -80 43 -53 110 61 98 -19 -113 -123 -55 76 -45 -77 42 -62 24 32 118 -105 59 94 -95 111 29 94 -12 90 81 -54 -46 108 124 -3 -73 106 -69 -103 88 -54 31 -95 24 -14 86 66 53 110 -30 44 -123 30 -118 39 14 40 -123 3 -126 86 77 -43 66 -55 -45 -7 -76 15 19 13 -38 50 -81 114 -91 -123 52 90 -13 -106 -122 -8 -75 -111 32 67 -71 37 70 -69 124 19 -111 -66 -35 -27 57 18 -12 76 31 79 -2 78 65 36 -45 118 126 71 13 6 64 66 23 -33 -123 -48 -123 75 -116 2 95 
31 64 -68 5 -8 -50 121 -59 109 73 68 -68 -118 104 -112 1 -26 -40 -114 108 -104 -48 -125 121 -42 -45 -2 34 97 -128 1 0 -64 -67 -124 58 -116 125 0 122 -58 68 55 82 44 -57 -46 -110 32 97 0 -71 -78 3 51 9 87 -79 43 56 50 45 -73 114 106 60 -84 119 57 44 -15 1 -17 41 -46 28 112 -91 -81 17 -121 47 -54 -71 -79 125 -62 9 47 109 -64 -32 26 120 83 -123 52 -128 124 110 44 110 -18 29 23 -63 57 7 -26 104 24 -19 23 98 -89 -55 95 -23 82 -114 -41 20 -18 -15 -116 -62 -10 -63 67 115 -81 111 97 -98 12 -9 96 -59 0 -58 46 -105 -75 70 -6 -36 -113 90 -57 97 105 31 117 88 17 -126 -102 -120 -61 -35 123 115 -51 -35 18 -39 -43 -15 31 85 -72 -51 -19 110 -109 104 -53 35 -62 19 -124 -85 50 122 -124 67 -4 31 75 64 -3 -57 
-77 75 -91 69 -92 -6 55 -60 81 111 -110 -66 94 38 39 42 -56 105 61 -52 22 -18 71 -102 -79 -61 -71 -3 -125 55 -59 55 2 -22 -5 -89 101 -78 -21 -74 35 -3 -12 -127 -93 28 43 -21 -122 -25 -72 28 -42 -128 -74 -120 -61 -17 -122 72 -89 -53 -2 41 -74 -5 80 29 -82 60 83 -47 -71 -56 -46 93 -28 125 -56 -22 101 -126 -122 60 3 61 69 -58 -83 -53 -114 -44 24 -114 -3 -50 -118 -50 107 -72 -118 63 -117 69 8 -35 34 108 92 -21 -41 65 110 94 126 -16 28 -61 55 -55 15 -58 30 39 -44 -101 118 95 106 97 24 -11 -96 35 59 40 -127 -36 -107 -35 -56 109 31 -74 -53 29 39 -25 96 -34 49 -17 37 79 23 -7 107 13 89 -43 111 -16 -53 16 -108 -122 57 22 -29 78 115 -84 -69 18 -29 7 48 -118 -17 16 105 -96 0 -114 -16 24 -120 -37 -92 97 -79 20 
83 -3 -92 103 4 93 125 -25 -85 -16 21 103 3 120 -19 -78 3 -35 -61 109 127 -61 123 -17 91 5 -53 1 -27 -4 21 -72 -6 57 32 127 -106 -99 103 66 -114 124 41 18 -12 24 -60 120 117 8 -27 116 -52 -32 -29 -89 -27 47 -88 76 45 62 5 -89 119 38 39 -114 67 15 -48 82 -117 122 100 1 18 -88 121 -121 -79 -34 124 126 -65 96 38 38 -112 79 114 61 -115 -10 -28 -124 29 13 -110 97 28 -29 -77 39 94 -105 -89 -17 64 -96 -10 -15 -2 115 -17 63 84 -106 101 -28 -27 87 34 -14 -51 -122 -10 -21 19 -118 -52 -82 110 0 -42 76 23 -3 60 87 31 51 -55 30 -89 57 93 123 -49 66 96 53 25 2 40 -25 -120 -97 83 -100 42 -97 -54 24 31 33 100 54 32 -96 13 63 83 -42 93 122 -112 59 -11 96 125 -43 -106 23 -41 62 -2 -32 -35 82 -4 -121 
-15 -57 31 17 -23 -125 -58 -119 -93 -45 -56 119 43 -91 -15 -69 96 -24 -101 -34 62 50 117 23 -16 116 119 78 70 116 86 56 -69 117 -56 -91 -7 -113 -82 29 -30 119 -108 14 -99 -121 -55 -3 -17 102 92 46 24 -47 -60 -120 -59 60 -41 12 48 46 68 108 -93 -116 18 29 -101 65 -70 127 -72 79 -115 -43 86 -41 84 -59 -67 -80 -12 -43 3 57 95 -56 -11 -74 -43 38 100 -103 -110 -121 39 37 -91 -62 102 -33 66 -98 47 80 -12 -122 40 73 -53 -27 121 -64 59 124 122 26 70 112 -48 -101 22 53 53 41 -67 -37 -51 -30 -97 -77 -62 97 -47 113 49 -58 119 -40 -113 68 62 10 -124 122 -122 -2 -108 76 -18 -27 -25 6 -102 -99 -82 -41 121 124 -70 -104 48 -4 122 -127 111 43 73 102 5 -40 -86 67 -30 48 61 -23 -82 82 -75 -98 56 30 36 82 -69 -46 43 -76 79 101 
78 -2 99 72 -128 82 115 73 -72 120 -94 -29 60 5 20 121 -18 -62 -53 37 -32 -125 67 5 -42 -2 -41 -127 -77 -90 -26 -127 37 -55 -55 38 -101 -67 111 85 54 -111 57 114 -105 -52 108 6 15 56 43 -16 60 110 -11 19 -20 78 -108 33 -12 -6 34 -102 -59 -20 -64 97 42 -81 54 96 66 -18 83 -39 -69 -65 -33 75 119 -117 60 51 -7 -79 70 103 0 90 -120 117 -43 42 16 -101 23 -48 124 -64 -128 -77 34 66 34 -12 28 94 52 124 -87 43 8 -27 95 -127 -105 37 104 24 -128 112 -115 -43 -101 -99 113 50 -19 109 -13 -19 -96 -107 49 -61 -118 -52 34 62 73 75 105 -48 49 -56 -46 72 -18 59 -33 -18 44 109 -60 -57 -118 -75 121 -9 35 109 102 -60 3 -105 8 13 -29 -87 75 46 -12 -75 126 -91 -3 -48 -19 -20 -116 78 -37 -72 -69 32 -128 -58 -43 121 62 121 
-25 -92 -67 106 -69 -59 120 -96 -18 67 -50 -29 -8 -52 -119 -9 -98 -10 100 43 69 -64 99 -127 -32 -29 -57 55 93 6 -80 -60 -85 -19 48 103 -77 40 -121 34 107 -43 6 -28 -93 -113 92 -63 6 64 108 76 1 -49 -51 -30 51 -107 -103 16 27 74 -43 70 56 -123 46 107 45 -75 -115 -104 -116 19 -4 48 34 -40 113 40 26 -35 116 27 -83 -63 125 -32 87 23 -16 -14 -32 70 57 -104 -53 103 -125 -8 30 -112 18 -86 -93 -114 90 -59 -25 -53 -18 2 41 -30 -100 -42 -91 -102 55 124 -79 40 111 19 -18 41 43 58 -112 -81 52 46 64 -59 88 100 -45 50 -87 -69 -3 24 61 -90 -5 -38 125 33 117 52 29 -90 93 13 57 -53 54 101 6 70 21 -71 117 -44 127 77 -72 -45 -128 99 -113 126 -6 77 -91 -10 40 35 -105 29 88 -75 -61 53 -62 125 1 120 -30 -122 -66 119 
65 -77 -53 64 2 -123 20 -126 104 36 -128 99 113 38 -38 25 -55 114 54 -95 -89 121 -42 106 -10 87 98 89 -35 34 -48 31 -43 29 96 87 -94 -13 -39 -118 24 91 -19 9 -127 -56 34 75 -69 88 108 99 -46 67 78 73 26 -80 -93 120 82 -13 23 41 17 -10 -128 51 -21 -38 -67 -125 54 -84 -115 55 -12 -81 3 -80 9 111 21 91 51 -30 36 -52 -109 -57 69 102 60 93 15 77 -45 15 -127 -65 -23 -66 68 -97 107 81 -41 -32 1 -38 -111 -119 -55 38 100 -4 9 -119 -54 29 -48 -113 -125 13 108 -110 -38 65 -95 92 1 12 27 -60 -85 7 22 -125 -25 -105 -35 -8 33 40 32 -122 37 -88 -113 111 69 96 127 72 -19 -21 -38 -56 45 -4 37 -82 9 -65 115 -76 70 10 -72 -83 -95 22 -89 -62 62 71 -56 -29 -17 88 83 54 57 -46 126 39 63 -39 -17 108 86 -108 
27 -34 -45 15 -109 27 25 -53 -56 58 -30 -17 -4 33 55 70 5 -89 30 -40 93 87 43 91 126 106 -76 110 -41 11 -126 114 -23 87 1 -3 -15 -103 -55 58 -45 -84 43 81 78 -31 -105 83 -119 -75 44 -26 -115 88 -62 12 66 119 -6 -103 -125 125 -116 -20 84 -115 -22 70 -89 53 -127 123 97 -84 76 -81 14 99 4 -104 -103 -81 -2 39 -121 -63 -78 -54 -71 -83 100 -68 -85 -16 -87 0 -2 21 71 -90 74 -56 34 -85 -12 -18 92 -126 82 -33 27 -21 15 -102 -110 -105 -37 70 98 -107 115 70 -47 31 56 124 32 55 17 -26 -35 91 -81 127 -122 36 -19 98 -90 65 66 66 -84 82 92 -65 105 56 6 -53 78 -8 18 32 25 -55 28 -72 -128 45 -97 -35 8 -50 -35 -113 114 -53 -15 -104 13 -76 -38 58 7 55 -7 112 -17 127 -69 -67 120 77 93 17 24 122 -55 24 39 105 
-10 48 -73 -44 -65 42 -96 49 -61 46 -27 30 104 -20 -43 -31 -36 69 97 24 3 -39 102 96 -21 -3 90 53 22 -126 31 13 50 -42 97 113 -127 3 -94 -60 -80 -119 -30 25 -11 56 -6 83 125 -37 107 0 53 81 97 33 79 59 87 -27 61 -11 -14 111 -52 -44 96 -51 87 4 -110 8 13 -11 33 -126 46 -101 85 44 -10 -63 44 44 -110 -115 78 -30 73 37 -56 -122 -102 59 118 103 16 -42 54 -26 90 72 -18 -26 62 -113 106 -20 -86 63 25 -95 -128 69 -50 20 83 -100 -10 -100 65 63 -94 -37 -7 25 -62 -118 112 -8 113 -54 -63 97 -78 0 -16 -100 108 -100 -37 -123 62 93 75 -116 113 30 41 -25 58 106 39 -36 -59 -96 118 -119 43 -26 2 -99 -79 -61 -2 100 68 111 -128 -80 12 93 -74 -54 -70 -127 -42 -85 -97 1 -109 -39 -22 58 -74 -79 90 45 59 -122 20 61 
36 70 -127 -94 42 -59 18 -85 -11 -98 -120 -84 -24 -62 46 -65 110 77 -64 -127 39 44 59 94 93 -107 11 -104 28 -97 85 -65 -27 86 98 -113 28 117 59 19 -109 67 63 124 6 -19 60 116 59 125 117 -30 41 -80 -64 -122 71 -53 31 -30 -22 -13 -93 80 75 -123 -32 -26 -6 -101 121 14 -33 -71 -118 -27 39 71 -38 -31 68 80 68 109 -127 5 -13 72 81 -110 43 60 -122 78 -115 81 -44 110 57 -49 10 -78 94 105 -21 -24 80 -110 -81 -86 117 -13 122 57 97 -5 63 85 68 -112 -25 112 -52 -18 -66 90 64 -109 72 -8 -29 -46 -84 -63 60 24 -86 12 43 -38 -74 -96 -50 -79 -39 -80 -83 -104 6 -14 41 110 -30 118 93 33 80 29 53 -103 23 -104 -21 67 90 40 -38 -124 -76 6 95 -22 38 -82 -100 -128 95 75 25 -28 -67 -62 83 -96 -72 48 65 9 78 118 34 101 
-114 14 40 -24 -74 3 110 107 10 77 -43 48 -5 115 -80 -38 -66 74 -64 -5 13 20 28 -59 69 93 78 19 84 113 -9 -30 -2 32 76 53 -94 58 -96 -84 -121 119 93 4 106 -115 -34 -88 -41 31 -92 100 52 -64 42 -8 -99 -8 12 113 106 4 85 -24 -93 -95 31 70 91 63 115 -30 54 80 102 -96 -35 -59 73 -74 -28 109 -102 -104 -83 -59 -111 76 62 29 -67 40 -96 -110 17 68 -77 48 11 15 -17 126 114 38 78 -40 71 44 30 -112 98 4 126 -3 -100 44 67 -82 -9 -127 -53 -74 -87 -20 -56 58 -80 -4 -22 -69 12 -38 -71 -3 -128 8 -41 -57 -76 117 89 23 121 -41 21 -106 -125 -41 -60 124 89 -112 -78 -126 -4 123 -67 -82 120 -88 -23 5 -125 -92 3 4 44 90 -52 -32 -48 -91 -8 -55 -4 -115 96 -128 102 37 124 63 54 47 -62 51 43 -128 97 35 41 76 
40 44 112 -85 48 -100 6 124 -3 86 -95 118 33 -98 4 1 -97 -23 39 28 42 -36 76 -20 -113 119 -20 113 -102 22 -67 67 66 -83 -18 -15 -55 116 -18 -57 75 -112 62 -21 48 -62 -20 79 -84 -109 107 -42 112 55 67 -128 -82 48 -15 -55 -59 47 -116 -121 -36 -6 122 -90 111 -24 -18 58 121 45 38 -87 -17 20 120 -99 -89 -28 -13 -104 28 56 -104 75 104 10 -108 -82 57 33 54 -107 28 48 60 11 25 -86 70 -109 -40 -21 -68 72 0 54 -27 40 -102 90 64 54 -110 88 -127 122 98 -107 41 27 -74 -33 -80 82 16 108 -35 42 24 -93 61 112 -113 -7 -72 16 48 -97 56 74 121 -9 -127 12 80 3 6 50 25 -81 77 79 15 125 -94 31 -23 0 -56 -127 -93 6 -15 51 1 -85 67 -80 -54 -6 -5 68 114 125 -49 66 0 85 116 25 5 65 -24 20 -66 -117 -77 41 
-117 124 -86 -82 -125 -99 97 4 73 -91 -76 20 32 48 88 -109 45 -89 85 -83 -4 -54 70 -126 -117 47 22 75 58 -55 116 69 71 31 -13 74 60 86 78 -123 123 -126 25 -101 51 -16 -82 -33 -104 5 -115 -106 79 -44 -104 -38 4 -82 -91 63 121 26 -124 64 -71 -8 -118 -11 79 88 -5 -54 90 21 -27 13 7 21 -19 31 -103 123 53 -24 -49 -51 67 -44 125 -23 -109 -10 -125 -105 -74 -68 -112 -64 -77 -33 25 47 42 -14 68 17 -128 -54 -91 110 -22 63 105 32 -89 58 110 106 -114 -21 -45 34 -30 88 -71 -103 -108 75 -39 -57 -86 -14 -10 -43 101 -69 102 -27 -122 12 -45 -16 -54 62 -111 114 -9 0 -36 -122 -21 49 40 78 -119 97 103 -99 -84 65 102 -41 -77 -36 -83 -104 -104 20 -2 -97 -97 82 -112 106 16 -95 -36 8 -95 57 14 13 106 54 -38 115 -104 -63 -111 -60 -126 -9 
-100 -75 -44 -55 79 -19 -35 -51 -115 -4 32 -99 103 49 64 -61 57 97 125 -57 -18 103 125 -55 -37 22 12 109 91 -114 -28 119 69 57 66 20 39 -97 -31 -76 -99 2 83 -124 51 19 73 -20 116 70 52 99 -83 -79 -83 -119 72 -71 118 -93 -57 -38 27 -116 21 93 -96 60 125 -126 -15 27 -123 -60 31 56 87 104 -92 -53 46 -40 -81 -36 11 -36 -27 83 22 93 -10 93 56 -111 -22 -52 111 -117 10 -20 15 123 -121 20 -65 -90 -53 23 -113 -16 98 -67 73 -111 -102 84 110 -127 -89 4 94 30 98 22 48 77 -29 -97 88 -19 12 -26 -24 -109 -6 -88 -71 71 -65 73 56 -95 8 1 52 34 86 34 -93 125 39 -127 28 9 -104 76 -43 -5 107 46 105 119 22 82 -118 -112 -6 68 87 58 -114 -113 -37 22 17 16 56 103 -78 92 100 -39 -35 -128 98 -11 76 56 -15 -73 -27 91 
47 123 45 57 -116 40 126 -29 -31 -116 -13 -66 -94 5 78 -38 -21 1 -74 80 90 21 -47 -68 11 -99 116 125 86 -38 88 5 86 -122 63 -30 46 -67 71 17 74 59 79 -20 64 -99 71 44 -97 126 -5 121 -109 -51 55 30 -21 43 27 66 6 116 71 -36 122 -122 63 40 -61 -122 57 14 65 -120 122 -127 -90 66 45 70 -64 42 -65 -45 119 118 -15 99 34 14 -91 -89 2 109 -124 124 -13 68 36 56 74 94 70 -116 102 65 -115 13 -125 -69 -46 -61 101 19 -105 -36 9 -119 65 43 23 102 -45 25 83 -41 21 -57 28 58 0 -26 24 70 115 126 -121 1 -116 -118 60 -34 78 -95 -15 -27 127 -5 -17 64 39 7 38 122 -96 122 83 -75 66 -18 111 66 -43 -121 8 73 7 16 -54 19 -102 7 -15 105 -87 100 79 -88 96 -66 104 7 -58 -114 -126 103 -120 85 -100 -54 68 13 
-116 27 -108 -107 -29 -101 37 -82 46 -65 54 -96 41 95 5 -8 8 -28 -73 112 107 -3 126 -19 101 8 -62 3 82 8 16 95 -94 36 -12 6 64 26 53 110 89 107 15 3 74 -109 123 82 -9 51 66 100 50 64 -47 23 -57 -107 -103 27 29 41 122 -65 78 -18 -59 -114 -120 122 124 97 -27 -116 -29 48 -97 95 2 -104 -109 -61 124 69 5 78 -37 76 -29 118 103 -128 -97 97 64 109 -49 -122 -5 -41 1 121 -71 103 -123 -99 23 -92 -3 26 61 17 93 -71 86 -31 -120 -79 47 -21 40 22 109 72 120 -83 -75 -57 -77 -78 32 53 -85 -39 -100 49 119 -77 -43 -12 77 -109 6 -85 -52 -37 13 85 -114 60 -63 54 83 47 -3 75 92 -76 19 17 -26 -78 -59 18 -116 98 -62 -124 -107 -104 -8 99 -85 0 -114 -8 91 -101 -51 105 -40 -113 -96 44 -66 -98 119 28 -46 10 -84 57 
-67 114 75 -55 -44 14 -51 -23 39 71 77 82 71 91 75 34 -9 26 -116 -48 -87 -84 124 105 -54 115 5 -98 125 -79 87 -70 36 35 5 120 -80 82 -31 -41 -103 48 43 96 11 -11 -125 3 16 16 83 58 -68 -49 -93 -121 67 40 -91 65 -39 -3 -5 125 -96 1 -11 81 -45 -41 -87 109 -121 84 -50 -109 74 82 22 91 -31 106 -107 -98 -71 -72 -91 -3 -32 76 63 58 -55 -70 -73 106 60 45 59 16 5 -28 125 13 57 -53 32 -124 -99 54 95 127 32 116 -99 -38 -84 68 -40 13 16 -105 71 89 82 -2 67 -114 44 126 30 -80 100 -100 61 29 -25 93 -95 -122 20 -128 6 52 116 36 15 33 104 -25 46 -9 -2 -12 81 82 115 20 96 31 -110 127 -48 118 -101 -115 -108 -125 -21 -75 -119 0 -74 16 52 43 52 68 -52 28 -85 -6 20 -85 112 -28 125 -29 -8 -35 4 -117 
-36 84 -126 -9 -31 -106 -5 -51 76 -123 77 -126 -107 2 -82 73 70 123 101 113 -11 121 -100 102 94 -103 75 -42 120 -50 -30 -44 35 101 -51 5 -5 73 83 -57 -50 -96 75 -28 -94 121 46 104 116 -108 90 106 -115 -10 81 108 -111 28 67 -119 -22 -91 -35 14 11 43 -110 -122 116 -27 79 68 -121 26 -88 -87 19 86 19 -121 106 109 -15 -8 -29 -62 -28 -12 -34 -89 126 -55 78 -36 87 89 8 106 96 125 80 47 65 87 73 -23 2 -37 -65 -108 99 43 -127 85 36 101 -104 -120 -38 119 48 89 -63 126 -75 -104 88 -66 3 56 60 -45 103 -4 43 48 102 -84 12 38 65 111 81 66 68 -12 -88 -36 125 -125 85 46 92 -106 -84 19 47 -124 81 -78 -68 13 -122 36 10 -79 -45 112 -34 -33 -106 -97 79 104 -30 20 93 11 -16 91 14 -59 -119 -23 92 54 124 12 59 -51 -66 -9 
-38 69 -100 100 118 112 -44 -44 81 -21 117 32 84 88 52 49 99 -91 -116 -16 107 22 -38 72 -52 88 -45 8 -91 -110 127 -127 87 -101 101 -51 13 -70 35 -35 -90 -104 125 122 -16 -78 43 -45 88 -72 68 67 78 31 11 -102 -10 -34 34 -99 113 -94 -98 72 62 4 -106 -54 -66 -71 40 -28 82 -90 -34 -62 89 11 22 49 67 90 -13 17 -8 0 -84 -16 94 -50 -114 -48 113 45 -104 48 49 47 122 112 -24 -93 85 59 74 53 125 35 -65 -109 84 3 109 -57 20 103 71 64 88 -90 16 -26 -10 1 -109 -113 49 68 -65 44 -76 40 -49 -118 100 26 -65 97 -68 -2 -11 -112 -127 -30 88 21 74 -96 86 -94 71 102 9 -67 103 -100 77 25 -31 13 69 -106 54 21 33 26 -82 96 -6 107 -34 112 -5 96 84 -45 118 -98 116 -52 66 59 51 75 -8 -102 104 -58 51 74 -45 120 
96 -119 13 -126 35 -69 98 31 -90 66 -113 34 -94 -29 -10 25 3 -22 101 69 -90 -104 16 31 -77 120 -27 -26 -62 58 96 -93 67 -20 38 103 -87 8 6 -49 -55 21 114 109 121 105 6 124 -45 108 -63 -7 -124 81 26 56 -54 127 -97 13 -71 127 48 -3 108 86 -28 -107 -34 106 102 -88 127 -40 -107 -8 -63 28 117 21 8 -74 -113 -116 -120 -87 69 -46 -88 -28 95 99 -29 -112 -32 80 102 69 -26 69 -81 -52 110 -82 37 4 40 102 -97 29 123 -89 84 11 53 -36 52 -7 -81 -35 94 15 -64 66 31 33 -110 -122 102 121 75 -107 -59 -71 68 -22 62 -21 81 -35 10 77 -122 94 -41 59 59 13 53 106 106 -109 -8 43 -43 25 -53 -25 -97 50 -31 -22 71 -89 37 11 -109 99 -9 100 -64 2 -79 71 -33 10 2 27 -106 55 5 1 74 -3 -85 -97 23 119 -120 54 41 106 
34 112 -111 -58 123 -92 42 115 10 -22 -12 59 -78 -44 69 -76 111 -37 108 116 92 54 -14 8 -42 10 -2 -34 65 40 -56 -30 -104 90 -87 -108 0 83 8 -119 -67 125 68 -17 -47 10 -91 -63 101 -111 54 -62 -57 -88 74 30 -77 -55 -4 116 -15 -59 -42 11 -96 -128 -97 32 83 39 -87 17 -92 109 2 -10 119 39 -72 93 56 110 32 0 24 -23 31 75 -77 -101 -65 38 98 22 49 3 -106 -48 35 105 119 76 122 -100 57 -5 -109 -79 -94 76 15 -38 58 -82 91 82 24 -7 29 -52 -107 92 114 119 114 -93 -7 9 -13 -100 -15 107 -24 109 8 -94 -24 -101 84 -116 103 -30 -26 34 17 -63 -13 41 -69 18 117 -47 110 -25 73 -31 -117 68 106 -2 -32 93 107 74 74 115 -20 -78 -113 -64 63 118 35 -90 -104 52 104 -115 93 -92 31 -45 118 -115 59 -65 111 71 -125 90 70 -28 
-73 -79 -82 -127 -91 27 52 -76 -37 -13 -86 126 -102 -61 -78 -126 -48 16 39 -17 99 -99 125 -97 -35 109 -26 97 -57 45 70 -2 95 116 -128 5 -113 -76 57 -22 -88 -29 105 -62 -89 28 70 120 -84 -20 104 16 -117 102 47 -24 -45 -107 74 27 67 17 26 -94 -123 26 39 -107 -50 -33 -128 -9 -61 106 58 -21 -122 -128 -29 -78 -19 77 67 121 51 114 -31 -122 -120 44 -95 -53 -68 59 -19 -62 85 -108 88 -93 116 88 27 -73 -62 86 -93 74 86 8 -4 68 85 -65 61 8 51 31 -114 59 -53 -81 -122 -120 -22 116 75 -65 -120 35 -30 124 124 -2 52 63 -44 88 9 43 96 -122 112 53 70 -83 -68 -8 77 75 52 25 122 58 -95 101 -82 109 -92 -74 16 7 51 -116 6 -25 76 -38 -65 -44 -122 -97 91 -10 84 34 36 17 27 113 -37 -49 10 86 10 44 -69 57 -103 -33 111 41 
-26 -93 54 109 11 -126 -57 -54 87 78 106 51 -60 -66 85 105 79 -17 -38 43 63 -27 -127 -55 -111 -68 -126 43 -100 -15 -45 3 21 10 112 32 -116 -72 106 100 -122 84 23 76 -110 -21 -75 -31 91 16 13 -101 117 14 -28 7 -54 103 -79 -26 -40 -122 -22 -18 16 -38 -114 29 19 121 -127 -102 -51 24 102 97 4 28 67 95 -85 -48 122 -95 -34 95 -88 42 70 -38 17 32 97 123 -114 -16 -42 -100 14 105 22 -113 4 -28 39 106 -59 43 6 -120 -117 50 89 -123 -45 -72 -27 124 98 44 -42 -14 -53 -73 111 90 -87 -59 119 -73 -82 -115 -57 -77 -15 -18 -99 -73 27 36 65 38 86 26 -85 42 -46 17 38 -76 -67 -3 -88 -119 53 -105 100 -34 -36 -37 -105 -117 105 95 -66 92 -51 93 -109 104 1 -44 -114 -42 -17 -70 1 66 -53 -90 -9 9 36 32 -109 90 -73 -9 57 -108 83 80 
32 60 47 95 24 -3 -68 -84 102 61 -127 117 20 -16 -81 -108 -77 -6 59 43 5 -33 75 -104 -71 3 16 114 23 -30 -61 -74 31 -14 22 56 112 82 100 87 -113 101 -52 -93 87 -5 56 11 -10 -13 -75 -5 83 1 20 13 -125 -93 127 -102 -122 -62 81 -90 54 104 94 -90 58 -62 125 -54 40 -55 -19 -2 -59 -90 -119 -67 -102 63 57 109 64 78 -7 67 113 121 -35 -8 -68 -81 31 -14 -105 125 25 -47 -65 -105 -100 103 -32 -117 103 -89 50 112 -28 76 -80 30 57 112 -21 51 -76 94 -84 18 87 -24 -63 118 -37 89 115 117 44 51 -116 72 -102 109 83 -127 -108 5 -14 121 81 35 -104 10 19 -124 61 -57 -30 106 90 -71 83 -101 48 -81 -11 -93 -92 -95 86 49 105 -15 30 -67 -14 -77 -62 -27 45 -108 9 69 -98 29 74 -36 100 45 71 62 103 26 -38 23 -55 -48 59 110 
-15 -111 31 91 3 62 -104 -10 113 92 92 30 112 102 100 -114 3 -82 107 -26 91 50 38 -62 77 1 -38 -106 81 22 -123 -62 39 -92 -99 43 98 55 -95 83 19 -3 114 3 -29 86 -111 102 -124 125 78 95 -81 -13 35 124 116 125 -109 -59 19 25 8 -71 -67 -91 100 33 92 6 -13 -18 -124 102 -15 104 60 -124 -49 -64 -127 -99 33 -80 -111 -61 46 -123 -64 -63 75 -45 -38 -46 13 24 -9 114 -72 85 120 -83 68 -4 -109 -74 -27 -48 -70 53 -111 60 -46 50 -20 -29 -11 -102 105 -74 -37 52 10 54 7 24 79 126 -118 -121 -45 -126 53 -104 0 -55 -50 101 26 -119 -102 -85 69 -20 -34 50 -48 84 77 -71 12 41 109 -107 -33 116 -83 47 -14 -73 54 71 -70 108 95 58 -75 46 -97 79 -73 58 -6 124 -90 89 46 -10 -82 123 -80 58 37 30 -49 5 18 -3 -77 -124 -75 -23 
75 -17 -43 -86 42 11 -40 73 90 16 3 86 -116 -87 47 -69 -96 93 -74 81 23 -37 -18 -25 -32 -128 -27 -108 6 27 -2 81 -117 -44 124 53 -32 85 127 59 -27 -126 17 -15 45 -64 -83 77 30 101 31 54 -64 14 -99 34 15 3 54 21 -99 53 -27 41 11 98 95 -21 56 94 -90 -99 -32 -72 -113 -115 121 -67 -37 23 -94 122 -52 99 8 106 -123 23 -20 -68 44 -117 -15 -110 52 124 116 19 -25 44 113 -113 -55 -46 -57 -39 -33 -64 -105 59 -41 58 -75 37 -99 -66 15 -93 -43 -4 -33 -126 8 -47 -108 60 -50 9 -49 -74 54 65 -59 127 -109 13 89 116 -51 -16 -81 38 -86 102 75 73 -92 90 108 -7 87 76 124 -34 -99 17 28 108 -102 -21 -93 80 -84 105 -49 -64 119 -87 53 -60 26 100 -22 -59 74 -75 -114 -18 17 -6 -23 -25 71 -27 -57 -28 -9 99 -47 18 -50 117 
98 -6 94 -79 -69 85 -38 112 27 -11 -43 -123 59 32 60 -55 -113 77 -60 121 -76 -117 95 -5 -17 -42 95 -63 -24 -83 -74 -54 -87 22 125 -28 -22 -41 86 -123 -51 44 12 9 -53 72 82 91 21 -106 84 -55 34 52 70 -110 -118 -91 84 -13 -45 -117 -66 125 33 -69 98 12 -108 56 -110 -31 100 -98 107 -80 102 -67 -117 123 85 -32 -60 -10 -108 11 -119 -98 49 94 -110 5 -23 -47 2 -118 13 -29 -106 33 29 -88 4 1 -58 111 -79 45 -84 62 40 2 -98 109 121 -78 -9 -126 81 41 -32 -28 -83 74 54 -81 -44 67 20 -21 101 49 20 -24 50 -37 -41 100 -120 -124 -94 49 7 -64 -98 -128 115 -106 -126 68 64 100 -88 -19 46 -34 30 -125 35 -79 111 8 -30 -125 -16 21 -34 72 -8 -25 -52 27 25 83 -37 -73 83 -50 -51 -42 20 14 59 60 124 -24 28 26 108 -66 -53 -37 
-58 -82 -33 55 67 62 -2 61 38 -53 88 63 32 -76 118 -14 3 69 -55 -106 -46 -124 -45 79 110 -17 -24 -38 46 -76 55 116 -30 -106 -85 -90 -44 -86 99 123 -11 59 -70 -107 -17 -79 -119 115 -10 -46 10 73 88 -35 -103 -58 77 2 33 123 -73 88 -17 26 -18 27 -64 68 69 36 -65 -69 96 -7 81 -49 -85 90 67 34 46 -51 -21 6 43 5 -52 121 7 -19 116 -66 -58 -28 -39 53 127 26 121 -59 -66 57 1 31 -77 -47 110 -34 45 50 2 -38 0 109 -32 43 114 45 -92 121 -102 -103 57 -32 126 -110 23 -3 44 -112 67 -22 74 68 10 -3 23 -8 -36 -61 43 94 30 43 -53 126 86 62 43 123 -72 -59 -108 113 -89 19 -125 62 -112 -81 -50 84 27 25 24 37 -106 -82 -99 -13 114 -56 82 16 115 -98 -114 -54 92 -71 -59 -108 0 90 6 39 -20 9 101 -4 57 -77 
-48 84 77 -23 -8 -29 -104 -105 -41 -117 -33 -86 -101 84 73 -86 -98 37 100 100 -70 -29 62 64 11 -86 74 -17 39 -125 -92 -8 87 113 -30 80 85 -6 103 -83 -122 72 88 -94 -100 33 77 -70 70 -79 31 1 22 -36 66 -96 7 12 17 46 15 -75 39 102 39 -119 54 -5 -123 -98 -87 -117 -26 2 46 3 -94 -6 -67 -23 45 92 106 67 57 44 -29 -65 -73 -12 -19 -58 42 -107 -84 -48 31 -29 77 36 -126 -10 48 -24 121 -35 -21 -101 -39 -87 -123 7 -123 112 -55 62 28 45 -3 -44 -94 -21 27 76 1 -56 30 33 44 -22 -60 46 97 116 23 -38 83 -126 -10 -84 -85 124 51 49 108 -4 -18 -119 42 -20 -35 -52 88 -8 26 90 65 -73 -6 -20 -94 63 27 -125 -76 -79 -34 -121 -77 -43 52 95 -47 103 16 63 100 -2 72 14 107 38 91 -60 -98 117 31 96 -84 -103 77 -50 
-40 -24 82 -115 26 49 21 -50 7 -56 -83 -39 48 62 -104 20 61 -32 -94 41 -122 -3 -19 -92 -14 -116 5 -97 38 -46 -19 126 -69 -65 -116 -43 -15 -95 36 120 -22 -46 -47 -102 17 106 -81 -51 -54 82 -10 -48 80 100 118 -62 -16 -6 98 -106 77 -49 22 -120 -113 -94 -34 1 -61 3 122 -82 -43 -53 -55 102 55 121 -76 -127 75 -85 83 27 -112 73 -35 -127 -61 -65 -104 18 -113 46 -102 -98 -48 121 -96 20 125 -102 67 -46 102 13 -71 29 6 110 -97 81 -103 114 -21 42 -69 -55 44 127 9 -60 17 -104 -14 -84 -74 67 -91 87 -42 35 -15 -103 118 89 -90 48 118 44 30 -107 -4 -73 8 -24 -30 67 50 15 67 59 83 84 83 -59 -128 11 -120 39 98 95 -55 -44 -7 64 -83 32 -17 36 77 14 58 74 70 -63 -77 41 -123 -27 -73 -56 -95 11 -100 -12 -48 30 0 -40 69 -30 
